<mxfile host="app.diagrams.net" modified="2024-03-19T18:14:13.783Z" agent="Mozilla/5.0 (Windows NT 10.0; Win64; x64) AppleWebKit/537.36 (KHTML, like Gecko) Chrome/122.0.0.0 Safari/537.36 Edg/122.0.0.0" etag="Qv1AB9uhJp_TRLEnCAJQ" version="24.0.2" type="device">
  <diagram name="Page-1" id="arwjkRtwd51AYSBVNWPB">
    <mxGraphModel dx="2452" dy="2370" grid="1" gridSize="10" guides="1" tooltips="1" connect="1" arrows="1" fold="1" page="0" pageScale="1" pageWidth="827" pageHeight="1169" math="0" shadow="0">
      <root>
        <mxCell id="0" />
        <mxCell id="1" parent="0" />
        <mxCell id="PluiV_uVmu6kRXKaNqSc-5" value="«interface»&lt;br&gt;&lt;b&gt;MiniCyclingPortal&lt;/b&gt;" style="html=1;whiteSpace=wrap;fillColor=#dae8fc;strokeColor=#6c8ebf;" parent="1" vertex="1">
          <mxGeometry x="1370" y="-300" width="110" height="50" as="geometry" />
        </mxCell>
        <mxCell id="PluiV_uVmu6kRXKaNqSc-7" value="" style="edgeStyle=orthogonalEdgeStyle;rounded=0;orthogonalLoop=1;jettySize=auto;html=1;entryX=0.5;entryY=1;entryDx=0;entryDy=0;endArrow=block;endFill=0;" parent="1" source="PluiV_uVmu6kRXKaNqSc-6" target="PluiV_uVmu6kRXKaNqSc-5" edge="1">
          <mxGeometry relative="1" as="geometry" />
        </mxCell>
        <mxCell id="PluiV_uVmu6kRXKaNqSc-6" value="«interface»&lt;br&gt;&lt;b&gt;CyclingPortal&lt;br&gt;&lt;/b&gt;" style="html=1;whiteSpace=wrap;fillColor=#dae8fc;strokeColor=#6c8ebf;" parent="1" vertex="1">
          <mxGeometry x="1370" y="-190" width="110" height="50" as="geometry" />
        </mxCell>
        <mxCell id="PluiV_uVmu6kRXKaNqSc-18" style="edgeStyle=orthogonalEdgeStyle;rounded=0;orthogonalLoop=1;jettySize=auto;html=1;entryX=0.5;entryY=1;entryDx=0;entryDy=0;endArrow=block;endFill=0;dashed=1;dashPattern=8 8;" parent="1" source="PluiV_uVmu6kRXKaNqSc-14" target="PluiV_uVmu6kRXKaNqSc-6" edge="1">
          <mxGeometry relative="1" as="geometry" />
        </mxCell>
        <mxCell id="PluiV_uVmu6kRXKaNqSc-14" value="CyclingPortalImpl" style="swimlane;fontStyle=1;align=center;verticalAlign=top;childLayout=stackLayout;horizontal=1;startSize=26;horizontalStack=0;resizeParent=1;resizeParentMax=0;resizeLast=0;collapsible=1;marginBottom=0;whiteSpace=wrap;html=1;" parent="1" vertex="1">
          <mxGeometry x="1070" y="-50" width="710" height="816" as="geometry" />
        </mxCell>
        <mxCell id="VWBThBxiizGn_0epKAHP-2" value="- myRaces : HashMap&amp;lt;Integer, Race&amp;gt;" style="text;strokeColor=none;fillColor=none;align=left;verticalAlign=top;spacingLeft=4;spacingRight=4;overflow=hidden;rotatable=0;points=[[0,0.5],[1,0.5]];portConstraint=eastwest;whiteSpace=wrap;html=1;" parent="PluiV_uVmu6kRXKaNqSc-14" vertex="1">
          <mxGeometry y="26" width="710" height="26" as="geometry" />
        </mxCell>
        <mxCell id="VWBThBxiizGn_0epKAHP-3" value="- myTeams : HashMap&amp;lt;Integer, Team&amp;gt;" style="text;strokeColor=none;fillColor=none;align=left;verticalAlign=top;spacingLeft=4;spacingRight=4;overflow=hidden;rotatable=0;points=[[0,0.5],[1,0.5]];portConstraint=eastwest;whiteSpace=wrap;html=1;" parent="PluiV_uVmu6kRXKaNqSc-14" vertex="1">
          <mxGeometry y="52" width="710" height="26" as="geometry" />
        </mxCell>
        <mxCell id="DgH2YeEBz2LFjA33P2SG-1" value="- errorChecker : ErrorChecker" style="text;strokeColor=none;fillColor=none;align=left;verticalAlign=top;spacingLeft=4;spacingRight=4;overflow=hidden;rotatable=0;points=[[0,0.5],[1,0.5]];portConstraint=eastwest;whiteSpace=wrap;html=1;" parent="PluiV_uVmu6kRXKaNqSc-14" vertex="1">
          <mxGeometry y="78" width="710" height="26" as="geometry" />
        </mxCell>
        <mxCell id="VWBThBxiizGn_0epKAHP-1" value="" style="line;strokeWidth=1;fillColor=none;align=left;verticalAlign=middle;spacingTop=-1;spacingLeft=3;spacingRight=3;rotatable=0;labelPosition=right;points=[];portConstraint=eastwest;strokeColor=inherit;" parent="PluiV_uVmu6kRXKaNqSc-14" vertex="1">
          <mxGeometry y="104" width="710" height="8" as="geometry" />
        </mxCell>
        <mxCell id="PluiV_uVmu6kRXKaNqSc-17" value="&lt;b&gt;From MiniCyclingPortal:&lt;/b&gt;&lt;br&gt;+&amp;nbsp;getRaceIds() : int[]&lt;div&gt;+&amp;nbsp;createRace(String name, String description) : int&lt;/div&gt;&lt;div&gt;+&amp;nbsp;viewRaceDetails(int raceId) : String&lt;/div&gt;&lt;div&gt;+&amp;nbsp;removeRaceById(int raceId) : void&lt;/div&gt;&lt;div&gt;+ getNumberOfStages(int raceId) : int&lt;/div&gt;&lt;div&gt;+&amp;nbsp;addStageToRace(int raceId, String stageName, String description, double length, LocalDateTime startTime, StageType type) : int&lt;br&gt;+&amp;nbsp;getRaceStages(int raceId) : int[]&lt;/div&gt;&lt;div&gt;+&amp;nbsp;getStageLength(int stageId) : double&lt;/div&gt;&lt;div&gt;+&amp;nbsp;removeStageById(int stageId) : void&lt;/div&gt;&lt;div&gt;+&amp;nbsp;addCategorizedClimbToStage(int stageId, Double location, CheckpointType type, Double averageGradient,&amp;nbsp;&lt;span style=&quot;background-color: initial;&quot;&gt;Double length) : int&lt;/span&gt;&lt;/div&gt;&lt;div&gt;+&amp;nbsp;addIntermediateSprintToStage(int stageId, double location) : int&lt;/div&gt;&lt;div&gt;+&amp;nbsp;removeCheckpoint(int checkpointId) : void&lt;br&gt;+&amp;nbsp;concludeStagePreparation(int stageId) : void&lt;/div&gt;&lt;div&gt;+&amp;nbsp;getStageCheckpoints(int stageId) : int[]&lt;/div&gt;&lt;div&gt;+&amp;nbsp;createTeam(String name, String description) : int&lt;/div&gt;&lt;div&gt;+&amp;nbsp;removeTeam(int teamId) : void&lt;/div&gt;&lt;div&gt;+&amp;nbsp;getTeams() : int[]&lt;/div&gt;&lt;div&gt;+&amp;nbsp;getTeamRiders(int teamId) : int[]&lt;/div&gt;&lt;div&gt;+&amp;nbsp;createRider(int teamID, String name, int yearOfBirth) : int&lt;/div&gt;&lt;div&gt;+&amp;nbsp;removeRider(int riderId) : void&lt;/div&gt;&lt;div&gt;+&amp;nbsp;registerRiderResultsInStage(int stageId, int riderId, LocalTime... checkpointTimes)&lt;br&gt;+&amp;nbsp;getRiderResultsInStage(int stageId, int riderId) : LocalTime[]&lt;/div&gt;&lt;div&gt;+&amp;nbsp;getRiderAdjustedElapsedTimeInStage(int stageId, int riderId) : LocalTime&lt;/div&gt;&lt;div&gt;+&amp;nbsp;deleteRiderResultsInStage(int stageId, int riderId) : void&lt;/div&gt;&lt;div&gt;+&amp;nbsp;getRidersRankInStage(int stageId) : int[]&lt;/div&gt;&lt;div&gt;+&amp;nbsp;getRankedAdjustedElapsedTimesInStage(int stageId) : LocalTime[]&lt;/div&gt;&lt;div&gt;+&amp;nbsp;getRidersPointsInStage(int stageId) : int[]&lt;br&gt;+&amp;nbsp;getRidersMountainPointsInStage(int stageId) : int[]&lt;/div&gt;&lt;div&gt;+&amp;nbsp;eraseCyclingPortal() : void&lt;/div&gt;&lt;div&gt;+&amp;nbsp;saveCyclingPortal(String filename) : void&lt;/div&gt;&lt;div&gt;+&amp;nbsp;loadCyclingPortal(String filename) : void&lt;/div&gt;&lt;div&gt;&lt;b&gt;From CyclingPortal:&lt;/b&gt;&lt;/div&gt;&lt;div&gt;+&amp;nbsp;removeRaceByName(String name) : void&lt;/div&gt;&lt;div&gt;+&amp;nbsp;getRidersGeneralClassificationRank(int raceId) : int[]&lt;/div&gt;&lt;div&gt;+&amp;nbsp;getGeneralClassificationTimesInRace(int raceId) : LocalTime[]&lt;/div&gt;&lt;div&gt;+&amp;nbsp;getRidersPointsInRace(int raceId) : int[]&lt;/div&gt;&lt;div&gt;+&amp;nbsp;getRidersMountainPointsInRace(int raceId) : int[]&lt;/div&gt;&lt;div&gt;+&amp;nbsp;getRidersPointClassificationRank(int raceId) : int[]&lt;/div&gt;&lt;div&gt;+&amp;nbsp;getRidersMountainPointClassificationRank(int raceId) : int[]&lt;/div&gt;&lt;div&gt;&lt;b&gt;Own Methods&lt;/b&gt;&lt;/div&gt;&lt;div&gt;# getRaceById(int raceId) : Race&lt;/div&gt;&lt;div&gt;# getStageById(int stageId) : Stage&lt;/div&gt;&lt;div&gt;# getCheckpointById(int checkpointId) : Checkpoint&lt;/div&gt;&lt;div&gt;# getTeamById(int teamId) : Team&lt;/div&gt;&lt;div&gt;# getRiderById(int riderId) : Rider&lt;/div&gt;&lt;div&gt;# getMyTeamsMap() : HashMap&amp;lt;Integer,Team&amp;gt;&lt;/div&gt;&lt;div&gt;# getMyRacesMap() : HashMap&amp;lt;Integer,Race&amp;gt;&lt;/div&gt;" style="text;strokeColor=none;fillColor=none;align=left;verticalAlign=top;spacingLeft=4;spacingRight=4;overflow=hidden;rotatable=0;points=[[0,0.5],[1,0.5]];portConstraint=eastwest;whiteSpace=wrap;html=1;" parent="PluiV_uVmu6kRXKaNqSc-14" vertex="1">
          <mxGeometry y="112" width="710" height="704" as="geometry" />
        </mxCell>
        <mxCell id="MvrAgjhzQsgvp2eCR5wt-8" style="edgeStyle=orthogonalEdgeStyle;rounded=0;orthogonalLoop=1;jettySize=auto;html=1;endArrow=block;endFill=0;dashed=1;dashPattern=8 8;" edge="1" parent="1" source="PluiV_uVmu6kRXKaNqSc-20" target="MvrAgjhzQsgvp2eCR5wt-1">
          <mxGeometry relative="1" as="geometry" />
        </mxCell>
        <mxCell id="PluiV_uVmu6kRXKaNqSc-20" value="Race" style="swimlane;fontStyle=1;align=center;verticalAlign=top;childLayout=stackLayout;horizontal=1;startSize=26;horizontalStack=0;resizeParent=1;resizeParentMax=0;resizeLast=0;collapsible=1;marginBottom=0;whiteSpace=wrap;html=1;" parent="1" vertex="1">
          <mxGeometry x="2010" y="-40" width="330" height="528" as="geometry" />
        </mxCell>
        <mxCell id="PluiV_uVmu6kRXKaNqSc-21" value="- &lt;u&gt;idsUsed&lt;/u&gt;&amp;nbsp;: ArrayList&amp;lt;Integer&amp;gt;" style="text;strokeColor=none;fillColor=none;align=left;verticalAlign=top;spacingLeft=4;spacingRight=4;overflow=hidden;rotatable=0;points=[[0,0.5],[1,0.5]];portConstraint=eastwest;whiteSpace=wrap;html=1;fontStyle=0" parent="PluiV_uVmu6kRXKaNqSc-20" vertex="1">
          <mxGeometry y="26" width="330" height="26" as="geometry" />
        </mxCell>
        <mxCell id="PluiV_uVmu6kRXKaNqSc-28" value="- name: String" style="text;strokeColor=none;fillColor=none;align=left;verticalAlign=top;spacingLeft=4;spacingRight=4;overflow=hidden;rotatable=0;points=[[0,0.5],[1,0.5]];portConstraint=eastwest;whiteSpace=wrap;html=1;" parent="PluiV_uVmu6kRXKaNqSc-20" vertex="1">
          <mxGeometry y="52" width="330" height="26" as="geometry" />
        </mxCell>
        <mxCell id="PluiV_uVmu6kRXKaNqSc-29" value="- description: String" style="text;strokeColor=none;fillColor=none;align=left;verticalAlign=top;spacingLeft=4;spacingRight=4;overflow=hidden;rotatable=0;points=[[0,0.5],[1,0.5]];portConstraint=eastwest;whiteSpace=wrap;html=1;" parent="PluiV_uVmu6kRXKaNqSc-20" vertex="1">
          <mxGeometry y="78" width="330" height="26" as="geometry" />
        </mxCell>
        <mxCell id="PluiV_uVmu6kRXKaNqSc-30" value="- stages: HashMap&amp;lt;Integer, Stage&amp;gt;" style="text;strokeColor=none;fillColor=none;align=left;verticalAlign=top;spacingLeft=4;spacingRight=4;overflow=hidden;rotatable=0;points=[[0,0.5],[1,0.5]];portConstraint=eastwest;whiteSpace=wrap;html=1;" parent="PluiV_uVmu6kRXKaNqSc-20" vertex="1">
          <mxGeometry y="104" width="330" height="26" as="geometry" />
        </mxCell>
        <mxCell id="PluiV_uVmu6kRXKaNqSc-22" value="" style="line;strokeWidth=1;fillColor=none;align=left;verticalAlign=middle;spacingTop=-1;spacingLeft=3;spacingRight=3;rotatable=0;labelPosition=right;points=[];portConstraint=eastwest;strokeColor=inherit;" parent="PluiV_uVmu6kRXKaNqSc-20" vertex="1">
          <mxGeometry y="130" width="330" height="8" as="geometry" />
        </mxCell>
        <mxCell id="PluiV_uVmu6kRXKaNqSc-27" value="+ addStage(Stage) : void" style="text;strokeColor=none;fillColor=none;align=left;verticalAlign=top;spacingLeft=4;spacingRight=4;overflow=hidden;rotatable=0;points=[[0,0.5],[1,0.5]];portConstraint=eastwest;whiteSpace=wrap;html=1;" parent="PluiV_uVmu6kRXKaNqSc-20" vertex="1">
          <mxGeometry y="138" width="330" height="26" as="geometry" />
        </mxCell>
        <mxCell id="DgH2YeEBz2LFjA33P2SG-15" value="+ removeStage(int stageId) : void" style="text;strokeColor=none;fillColor=none;align=left;verticalAlign=top;spacingLeft=4;spacingRight=4;overflow=hidden;rotatable=0;points=[[0,0.5],[1,0.5]];portConstraint=eastwest;whiteSpace=wrap;html=1;" parent="PluiV_uVmu6kRXKaNqSc-20" vertex="1">
          <mxGeometry y="164" width="330" height="26" as="geometry" />
        </mxCell>
        <mxCell id="DgH2YeEBz2LFjA33P2SG-17" value="+ getRidersGeneralClassificationTimes() : LocalTime[]" style="text;strokeColor=none;fillColor=none;align=left;verticalAlign=top;spacingLeft=4;spacingRight=4;overflow=hidden;rotatable=0;points=[[0,0.5],[1,0.5]];portConstraint=eastwest;whiteSpace=wrap;html=1;" parent="PluiV_uVmu6kRXKaNqSc-20" vertex="1">
          <mxGeometry y="190" width="330" height="26" as="geometry" />
        </mxCell>
        <mxCell id="DgH2YeEBz2LFjA33P2SG-18" value="+ getRidersGeneralClassificationRanks() : int[]" style="text;strokeColor=none;fillColor=none;align=left;verticalAlign=top;spacingLeft=4;spacingRight=4;overflow=hidden;rotatable=0;points=[[0,0.5],[1,0.5]];portConstraint=eastwest;whiteSpace=wrap;html=1;" parent="PluiV_uVmu6kRXKaNqSc-20" vertex="1">
          <mxGeometry y="216" width="330" height="26" as="geometry" />
        </mxCell>
        <mxCell id="DgH2YeEBz2LFjA33P2SG-20" value="+ getRidersMountainPoints() : int[]" style="text;strokeColor=none;fillColor=none;align=left;verticalAlign=top;spacingLeft=4;spacingRight=4;overflow=hidden;rotatable=0;points=[[0,0.5],[1,0.5]];portConstraint=eastwest;whiteSpace=wrap;html=1;" parent="PluiV_uVmu6kRXKaNqSc-20" vertex="1">
          <mxGeometry y="242" width="330" height="26" as="geometry" />
        </mxCell>
        <mxCell id="DgH2YeEBz2LFjA33P2SG-21" value="+ getRidersMountainPointsRankings() : int[]" style="text;strokeColor=none;fillColor=none;align=left;verticalAlign=top;spacingLeft=4;spacingRight=4;overflow=hidden;rotatable=0;points=[[0,0.5],[1,0.5]];portConstraint=eastwest;whiteSpace=wrap;html=1;" parent="PluiV_uVmu6kRXKaNqSc-20" vertex="1">
          <mxGeometry y="268" width="330" height="26" as="geometry" />
        </mxCell>
        <mxCell id="DgH2YeEBz2LFjA33P2SG-22" value="+ getRidersSprintPointsRankings() : int[]" style="text;strokeColor=none;fillColor=none;align=left;verticalAlign=top;spacingLeft=4;spacingRight=4;overflow=hidden;rotatable=0;points=[[0,0.5],[1,0.5]];portConstraint=eastwest;whiteSpace=wrap;html=1;" parent="PluiV_uVmu6kRXKaNqSc-20" vertex="1">
          <mxGeometry y="294" width="330" height="26" as="geometry" />
        </mxCell>
        <mxCell id="DgH2YeEBz2LFjA33P2SG-23" value="+ getRidersSprintPoints() : int[]" style="text;strokeColor=none;fillColor=none;align=left;verticalAlign=top;spacingLeft=4;spacingRight=4;overflow=hidden;rotatable=0;points=[[0,0.5],[1,0.5]];portConstraint=eastwest;whiteSpace=wrap;html=1;" parent="PluiV_uVmu6kRXKaNqSc-20" vertex="1">
          <mxGeometry y="320" width="330" height="26" as="geometry" />
        </mxCell>
        <mxCell id="DgH2YeEBz2LFjA33P2SG-19" value="- getRiderGeneralClassificationTime(int riderId) : LocalTime" style="text;strokeColor=none;fillColor=none;align=left;verticalAlign=top;spacingLeft=4;spacingRight=4;overflow=hidden;rotatable=0;points=[[0,0.5],[1,0.5]];portConstraint=eastwest;whiteSpace=wrap;html=1;" parent="PluiV_uVmu6kRXKaNqSc-20" vertex="1">
          <mxGeometry y="346" width="330" height="26" as="geometry" />
        </mxCell>
        <mxCell id="DgH2YeEBz2LFjA33P2SG-24" value="- getRiderMountainPoints(int riderId) : int" style="text;strokeColor=none;fillColor=none;align=left;verticalAlign=top;spacingLeft=4;spacingRight=4;overflow=hidden;rotatable=0;points=[[0,0.5],[1,0.5]];portConstraint=eastwest;whiteSpace=wrap;html=1;" parent="PluiV_uVmu6kRXKaNqSc-20" vertex="1">
          <mxGeometry y="372" width="330" height="26" as="geometry" />
        </mxCell>
        <mxCell id="DgH2YeEBz2LFjA33P2SG-25" value="- getRiderSprintPoints(int riderId) : int" style="text;strokeColor=none;fillColor=none;align=left;verticalAlign=top;spacingLeft=4;spacingRight=4;overflow=hidden;rotatable=0;points=[[0,0.5],[1,0.5]];portConstraint=eastwest;whiteSpace=wrap;html=1;" parent="PluiV_uVmu6kRXKaNqSc-20" vertex="1">
          <mxGeometry y="398" width="330" height="26" as="geometry" />
        </mxCell>
        <mxCell id="PluiV_uVmu6kRXKaNqSc-23" value="getters" style="text;strokeColor=#d6b656;fillColor=#fff2cc;align=center;verticalAlign=top;spacingLeft=4;spacingRight=4;overflow=hidden;rotatable=0;points=[[0,0.5],[1,0.5]];portConstraint=eastwest;whiteSpace=wrap;html=1;fontStyle=2" parent="PluiV_uVmu6kRXKaNqSc-20" vertex="1">
          <mxGeometry y="424" width="330" height="26" as="geometry" />
        </mxCell>
        <mxCell id="yfuVovTwI_u2sJsiJ5sg-3" value="+ getName() : String" style="text;strokeColor=none;fillColor=none;align=left;verticalAlign=top;spacingLeft=4;spacingRight=4;overflow=hidden;rotatable=0;points=[[0,0.5],[1,0.5]];portConstraint=eastwest;whiteSpace=wrap;html=1;" parent="PluiV_uVmu6kRXKaNqSc-20" vertex="1">
          <mxGeometry y="450" width="330" height="26" as="geometry" />
        </mxCell>
        <mxCell id="DgH2YeEBz2LFjA33P2SG-14" value="+ getDetails() : String" style="text;strokeColor=none;fillColor=none;align=left;verticalAlign=top;spacingLeft=4;spacingRight=4;overflow=hidden;rotatable=0;points=[[0,0.5],[1,0.5]];portConstraint=eastwest;whiteSpace=wrap;html=1;" parent="PluiV_uVmu6kRXKaNqSc-20" vertex="1">
          <mxGeometry y="476" width="330" height="26" as="geometry" />
        </mxCell>
        <mxCell id="DgH2YeEBz2LFjA33P2SG-16" value="+ getStages() : HashMap&amp;lt;Integer, Stage&amp;gt;" style="text;strokeColor=none;fillColor=none;align=left;verticalAlign=top;spacingLeft=4;spacingRight=4;overflow=hidden;rotatable=0;points=[[0,0.5],[1,0.5]];portConstraint=eastwest;whiteSpace=wrap;html=1;" parent="PluiV_uVmu6kRXKaNqSc-20" vertex="1">
          <mxGeometry y="502" width="330" height="26" as="geometry" />
        </mxCell>
        <mxCell id="MvrAgjhzQsgvp2eCR5wt-9" style="edgeStyle=orthogonalEdgeStyle;rounded=0;orthogonalLoop=1;jettySize=auto;html=1;endArrow=block;endFill=0;dashed=1;dashPattern=8 8;" edge="1" parent="1" source="PluiV_uVmu6kRXKaNqSc-33" target="MvrAgjhzQsgvp2eCR5wt-1">
          <mxGeometry relative="1" as="geometry">
            <Array as="points">
              <mxPoint x="1880" y="550" />
            </Array>
          </mxGeometry>
        </mxCell>
        <mxCell id="PluiV_uVmu6kRXKaNqSc-33" value="&lt;b style=&quot;border-color: var(--border-color);&quot;&gt;Stage&lt;/b&gt;" style="swimlane;fontStyle=1;align=center;verticalAlign=top;childLayout=stackLayout;horizontal=1;startSize=25;horizontalStack=0;resizeParent=1;resizeParentMax=0;resizeLast=0;collapsible=1;marginBottom=0;whiteSpace=wrap;html=1;" parent="1" vertex="1">
          <mxGeometry x="2600" y="130" width="600" height="917" as="geometry" />
        </mxCell>
        <mxCell id="PluiV_uVmu6kRXKaNqSc-34" value="- &lt;u&gt;idsUsed&lt;/u&gt;&amp;nbsp;: ArrayList&amp;lt;Integer&amp;gt;" style="text;strokeColor=none;fillColor=none;align=left;verticalAlign=top;spacingLeft=4;spacingRight=4;overflow=hidden;rotatable=0;points=[[0,0.5],[1,0.5]];portConstraint=eastwest;whiteSpace=wrap;html=1;fontStyle=0" parent="PluiV_uVmu6kRXKaNqSc-33" vertex="1">
          <mxGeometry y="25" width="600" height="26" as="geometry" />
        </mxCell>
        <mxCell id="PluiV_uVmu6kRXKaNqSc-36" value="- name: String" style="text;strokeColor=none;fillColor=none;align=left;verticalAlign=top;spacingLeft=4;spacingRight=4;overflow=hidden;rotatable=0;points=[[0,0.5],[1,0.5]];portConstraint=eastwest;whiteSpace=wrap;html=1;" parent="PluiV_uVmu6kRXKaNqSc-33" vertex="1">
          <mxGeometry y="51" width="600" height="26" as="geometry" />
        </mxCell>
        <mxCell id="PluiV_uVmu6kRXKaNqSc-91" value="- type: StageType" style="text;strokeColor=none;fillColor=none;align=left;verticalAlign=top;spacingLeft=4;spacingRight=4;overflow=hidden;rotatable=0;points=[[0,0.5],[1,0.5]];portConstraint=eastwest;whiteSpace=wrap;html=1;" parent="PluiV_uVmu6kRXKaNqSc-33" vertex="1">
          <mxGeometry y="77" width="600" height="26" as="geometry" />
        </mxCell>
        <mxCell id="PluiV_uVmu6kRXKaNqSc-37" value="- description: String" style="text;strokeColor=none;fillColor=none;align=left;verticalAlign=top;spacingLeft=4;spacingRight=4;overflow=hidden;rotatable=0;points=[[0,0.5],[1,0.5]];portConstraint=eastwest;whiteSpace=wrap;html=1;" parent="PluiV_uVmu6kRXKaNqSc-33" vertex="1">
          <mxGeometry y="103" width="600" height="26" as="geometry" />
        </mxCell>
        <mxCell id="PluiV_uVmu6kRXKaNqSc-38" value="- length: double" style="text;strokeColor=none;fillColor=none;align=left;verticalAlign=top;spacingLeft=4;spacingRight=4;overflow=hidden;rotatable=0;points=[[0,0.5],[1,0.5]];portConstraint=eastwest;whiteSpace=wrap;html=1;" parent="PluiV_uVmu6kRXKaNqSc-33" vertex="1">
          <mxGeometry y="129" width="600" height="26" as="geometry" />
        </mxCell>
        <mxCell id="8Eclr8xNryOz6sF5g85--2" value="- prepared: boolean" style="text;strokeColor=none;fillColor=none;align=left;verticalAlign=top;spacingLeft=4;spacingRight=4;overflow=hidden;rotatable=0;points=[[0,0.5],[1,0.5]];portConstraint=eastwest;whiteSpace=wrap;html=1;fontStyle=0" parent="PluiV_uVmu6kRXKaNqSc-33" vertex="1">
          <mxGeometry y="155" width="600" height="26" as="geometry" />
        </mxCell>
        <mxCell id="DgH2YeEBz2LFjA33P2SG-27" value="- parentRace : Race" style="text;strokeColor=none;fillColor=none;align=left;verticalAlign=top;spacingLeft=4;spacingRight=4;overflow=hidden;rotatable=0;points=[[0,0.5],[1,0.5]];portConstraint=eastwest;whiteSpace=wrap;html=1;" parent="PluiV_uVmu6kRXKaNqSc-33" vertex="1">
          <mxGeometry y="181" width="600" height="26" as="geometry" />
        </mxCell>
        <mxCell id="DgH2YeEBz2LFjA33P2SG-26" value="- myCheckpoints : HashMap&amp;lt;Integer, Checkpoint&amp;gt;" style="text;strokeColor=none;fillColor=none;align=left;verticalAlign=top;spacingLeft=4;spacingRight=4;overflow=hidden;rotatable=0;points=[[0,0.5],[1,0.5]];portConstraint=eastwest;whiteSpace=wrap;html=1;" parent="PluiV_uVmu6kRXKaNqSc-33" vertex="1">
          <mxGeometry y="207" width="600" height="26" as="geometry" />
        </mxCell>
        <mxCell id="PluiV_uVmu6kRXKaNqSc-51" value="- checkpointOrder: ArrayList&amp;lt;Integer&amp;gt;" style="text;strokeColor=none;fillColor=none;align=left;verticalAlign=top;spacingLeft=4;spacingRight=4;overflow=hidden;rotatable=0;points=[[0,0.5],[1,0.5]];portConstraint=eastwest;whiteSpace=wrap;html=1;" parent="PluiV_uVmu6kRXKaNqSc-33" vertex="1">
          <mxGeometry y="233" width="600" height="26" as="geometry" />
        </mxCell>
        <mxCell id="DgH2YeEBz2LFjA33P2SG-29" value="- startTimes : HashMap&amp;lt;Integer, LocalTime&amp;gt;" style="text;strokeColor=none;fillColor=none;align=left;verticalAlign=top;spacingLeft=4;spacingRight=4;overflow=hidden;rotatable=0;points=[[0,0.5],[1,0.5]];portConstraint=eastwest;whiteSpace=wrap;html=1;" parent="PluiV_uVmu6kRXKaNqSc-33" vertex="1">
          <mxGeometry y="259" width="600" height="26" as="geometry" />
        </mxCell>
        <mxCell id="DgH2YeEBz2LFjA33P2SG-28" value="- finishTimes : HashMap&amp;lt;Integer, LocalTime&amp;gt;" style="text;strokeColor=none;fillColor=none;align=left;verticalAlign=top;spacingLeft=4;spacingRight=4;overflow=hidden;rotatable=0;points=[[0,0.5],[1,0.5]];portConstraint=eastwest;whiteSpace=wrap;html=1;" parent="PluiV_uVmu6kRXKaNqSc-33" vertex="1">
          <mxGeometry y="285" width="600" height="26" as="geometry" />
        </mxCell>
        <mxCell id="PluiV_uVmu6kRXKaNqSc-41" value="" style="line;strokeWidth=1;fillColor=none;align=left;verticalAlign=middle;spacingTop=-1;spacingLeft=3;spacingRight=3;rotatable=0;labelPosition=right;points=[];portConstraint=eastwest;strokeColor=inherit;" parent="PluiV_uVmu6kRXKaNqSc-33" vertex="1">
          <mxGeometry y="311" width="600" height="8" as="geometry" />
        </mxCell>
        <mxCell id="PluiV_uVmu6kRXKaNqSc-43" value="+ registerResults(int riderId, LocalTime... times) : void" style="text;strokeColor=none;fillColor=none;align=left;verticalAlign=top;spacingLeft=4;spacingRight=4;overflow=hidden;rotatable=0;points=[[0,0.5],[1,0.5]];portConstraint=eastwest;whiteSpace=wrap;html=1;" parent="PluiV_uVmu6kRXKaNqSc-33" vertex="1">
          <mxGeometry y="319" width="600" height="26" as="geometry" />
        </mxCell>
        <mxCell id="yfuVovTwI_u2sJsiJ5sg-1" value="+ addCheckpoint(Checkpoint checkpoint) : void" style="text;strokeColor=none;fillColor=none;align=left;verticalAlign=top;spacingLeft=4;spacingRight=4;overflow=hidden;rotatable=0;points=[[0,0.5],[1,0.5]];portConstraint=eastwest;whiteSpace=wrap;html=1;" parent="PluiV_uVmu6kRXKaNqSc-33" vertex="1">
          <mxGeometry y="345" width="600" height="26" as="geometry" />
        </mxCell>
        <mxCell id="PluiV_uVmu6kRXKaNqSc-50" value="+ concludePreparation() : void" style="text;strokeColor=none;fillColor=none;align=left;verticalAlign=top;spacingLeft=4;spacingRight=4;overflow=hidden;rotatable=0;points=[[0,0.5],[1,0.5]];portConstraint=eastwest;whiteSpace=wrap;html=1;fontStyle=0" parent="PluiV_uVmu6kRXKaNqSc-33" vertex="1">
          <mxGeometry y="371" width="600" height="26" as="geometry" />
        </mxCell>
        <mxCell id="PluiV_uVmu6kRXKaNqSc-54" value="+ removeCheckpoint(int checkpointId) : void" style="text;strokeColor=none;fillColor=none;align=left;verticalAlign=top;spacingLeft=4;spacingRight=4;overflow=hidden;rotatable=0;points=[[0,0.5],[1,0.5]];portConstraint=eastwest;whiteSpace=wrap;html=1;fontStyle=0" parent="PluiV_uVmu6kRXKaNqSc-33" vertex="1">
          <mxGeometry y="397" width="600" height="26" as="geometry" />
        </mxCell>
        <mxCell id="PluiV_uVmu6kRXKaNqSc-123" value="+ removeRider(int riderId) : void" style="text;strokeColor=none;fillColor=none;align=left;verticalAlign=top;spacingLeft=4;spacingRight=4;overflow=hidden;rotatable=0;points=[[0,0.5],[1,0.5]];portConstraint=eastwest;whiteSpace=wrap;html=1;" parent="PluiV_uVmu6kRXKaNqSc-33" vertex="1">
          <mxGeometry y="423" width="600" height="26" as="geometry" />
        </mxCell>
        <mxCell id="DgH2YeEBz2LFjA33P2SG-30" value="+ removeIdFromUsedIds() : void" style="text;strokeColor=none;fillColor=none;align=left;verticalAlign=top;spacingLeft=4;spacingRight=4;overflow=hidden;rotatable=0;points=[[0,0.5],[1,0.5]];portConstraint=eastwest;whiteSpace=wrap;html=1;" parent="PluiV_uVmu6kRXKaNqSc-33" vertex="1">
          <mxGeometry y="449" width="600" height="26" as="geometry" />
        </mxCell>
        <mxCell id="PluiV_uVmu6kRXKaNqSc-44" value="getters" style="text;strokeColor=#d6b656;fillColor=#fff2cc;align=center;verticalAlign=top;spacingLeft=4;spacingRight=4;overflow=hidden;rotatable=0;points=[[0,0.5],[1,0.5]];portConstraint=eastwest;whiteSpace=wrap;html=1;fontStyle=2" parent="PluiV_uVmu6kRXKaNqSc-33" vertex="1">
          <mxGeometry y="475" width="600" height="26" as="geometry" />
        </mxCell>
        <mxCell id="DgH2YeEBz2LFjA33P2SG-35" value="+ getName() : String" style="text;strokeColor=none;fillColor=none;align=left;verticalAlign=top;spacingLeft=4;spacingRight=4;overflow=hidden;rotatable=0;points=[[0,0.5],[1,0.5]];portConstraint=eastwest;whiteSpace=wrap;html=1;" parent="PluiV_uVmu6kRXKaNqSc-33" vertex="1">
          <mxGeometry y="501" width="600" height="26" as="geometry" />
        </mxCell>
        <mxCell id="DgH2YeEBz2LFjA33P2SG-36" value="+ getType() : StageType" style="text;strokeColor=none;fillColor=none;align=left;verticalAlign=top;spacingLeft=4;spacingRight=4;overflow=hidden;rotatable=0;points=[[0,0.5],[1,0.5]];portConstraint=eastwest;whiteSpace=wrap;html=1;" parent="PluiV_uVmu6kRXKaNqSc-33" vertex="1">
          <mxGeometry y="527" width="600" height="26" as="geometry" />
        </mxCell>
        <mxCell id="DgH2YeEBz2LFjA33P2SG-37" value="+ getLength() : double" style="text;strokeColor=none;fillColor=none;align=left;verticalAlign=top;spacingLeft=4;spacingRight=4;overflow=hidden;rotatable=0;points=[[0,0.5],[1,0.5]];portConstraint=eastwest;whiteSpace=wrap;html=1;" parent="PluiV_uVmu6kRXKaNqSc-33" vertex="1">
          <mxGeometry y="553" width="600" height="26" as="geometry" />
        </mxCell>
        <mxCell id="DgH2YeEBz2LFjA33P2SG-38" value="+ getCheckpoints(): ArrayList&amp;lt;Checkpoint&amp;gt;" style="text;strokeColor=none;fillColor=none;align=left;verticalAlign=top;spacingLeft=4;spacingRight=4;overflow=hidden;rotatable=0;points=[[0,0.5],[1,0.5]];portConstraint=eastwest;whiteSpace=wrap;html=1;" parent="PluiV_uVmu6kRXKaNqSc-33" vertex="1">
          <mxGeometry y="579" width="600" height="26" as="geometry" />
        </mxCell>
        <mxCell id="DgH2YeEBz2LFjA33P2SG-39" value="+ getPrepared() : boolean" style="text;strokeColor=none;fillColor=none;align=left;verticalAlign=top;spacingLeft=4;spacingRight=4;overflow=hidden;rotatable=0;points=[[0,0.5],[1,0.5]];portConstraint=eastwest;whiteSpace=wrap;html=1;" parent="PluiV_uVmu6kRXKaNqSc-33" vertex="1">
          <mxGeometry y="605" width="600" height="26" as="geometry" />
        </mxCell>
        <mxCell id="DgH2YeEBz2LFjA33P2SG-40" value="+ getRegisteredRiders() : ArrayList&amp;lt;Integer&amp;gt;" style="text;strokeColor=none;fillColor=none;align=left;verticalAlign=top;spacingLeft=4;spacingRight=4;overflow=hidden;rotatable=0;points=[[0,0.5],[1,0.5]];portConstraint=eastwest;whiteSpace=wrap;html=1;" parent="PluiV_uVmu6kRXKaNqSc-33" vertex="1">
          <mxGeometry y="631" width="600" height="26" as="geometry" />
        </mxCell>
        <mxCell id="PluiV_uVmu6kRXKaNqSc-42" value="+ getParentRace : Race" style="text;strokeColor=none;fillColor=none;align=left;verticalAlign=top;spacingLeft=4;spacingRight=4;overflow=hidden;rotatable=0;points=[[0,0.5],[1,0.5]];portConstraint=eastwest;whiteSpace=wrap;html=1;" parent="PluiV_uVmu6kRXKaNqSc-33" vertex="1">
          <mxGeometry y="657" width="600" height="26" as="geometry" />
        </mxCell>
        <mxCell id="PluiV_uVmu6kRXKaNqSc-134" value="+ getSprintPoints(int riderId) : int" style="text;strokeColor=none;fillColor=none;align=left;verticalAlign=top;spacingLeft=4;spacingRight=4;overflow=hidden;rotatable=0;points=[[0,0.5],[1,0.5]];portConstraint=eastwest;whiteSpace=wrap;html=1;" parent="PluiV_uVmu6kRXKaNqSc-33" vertex="1">
          <mxGeometry y="683" width="600" height="26" as="geometry" />
        </mxCell>
        <mxCell id="PluiV_uVmu6kRXKaNqSc-120" value="+ getRidersSprintPoints(int[] orderedRiders) : int[]" style="text;strokeColor=none;fillColor=none;align=left;verticalAlign=top;spacingLeft=4;spacingRight=4;overflow=hidden;rotatable=0;points=[[0,0.5],[1,0.5]];portConstraint=eastwest;whiteSpace=wrap;html=1;" parent="PluiV_uVmu6kRXKaNqSc-33" vertex="1">
          <mxGeometry y="709" width="600" height="26" as="geometry" />
        </mxCell>
        <mxCell id="PluiV_uVmu6kRXKaNqSc-53" value="+ getMountainPoints(int riderId) : int" style="text;strokeColor=none;fillColor=none;align=left;verticalAlign=top;spacingLeft=4;spacingRight=4;overflow=hidden;rotatable=0;points=[[0,0.5],[1,0.5]];portConstraint=eastwest;whiteSpace=wrap;html=1;" parent="PluiV_uVmu6kRXKaNqSc-33" vertex="1">
          <mxGeometry y="735" width="600" height="26" as="geometry" />
        </mxCell>
        <mxCell id="DgH2YeEBz2LFjA33P2SG-43" value="+ getRidersMountainPoints(int[] orderedRiders) : int[]" style="text;strokeColor=none;fillColor=none;align=left;verticalAlign=top;spacingLeft=4;spacingRight=4;overflow=hidden;rotatable=0;points=[[0,0.5],[1,0.5]];portConstraint=eastwest;whiteSpace=wrap;html=1;" parent="PluiV_uVmu6kRXKaNqSc-33" vertex="1">
          <mxGeometry y="761" width="600" height="26" as="geometry" />
        </mxCell>
        <mxCell id="DgH2YeEBz2LFjA33P2SG-31" value="- getElapsedTime(int riderId) : LocalTime" style="text;strokeColor=none;fillColor=none;align=left;verticalAlign=top;spacingLeft=4;spacingRight=4;overflow=hidden;rotatable=0;points=[[0,0.5],[1,0.5]];portConstraint=eastwest;whiteSpace=wrap;html=1;" parent="PluiV_uVmu6kRXKaNqSc-33" vertex="1">
          <mxGeometry y="787" width="600" height="26" as="geometry" />
        </mxCell>
        <mxCell id="DgH2YeEBz2LFjA33P2SG-32" value="+ getAdjustedElapsedTime(int riderId) : LocalTime" style="text;strokeColor=none;fillColor=none;align=left;verticalAlign=top;spacingLeft=4;spacingRight=4;overflow=hidden;rotatable=0;points=[[0,0.5],[1,0.5]];portConstraint=eastwest;whiteSpace=wrap;html=1;" parent="PluiV_uVmu6kRXKaNqSc-33" vertex="1">
          <mxGeometry y="813" width="600" height="26" as="geometry" />
        </mxCell>
        <mxCell id="DgH2YeEBz2LFjA33P2SG-33" value="+ getResults(int riderId) : LocalTime[]" style="text;strokeColor=none;fillColor=none;align=left;verticalAlign=top;spacingLeft=4;spacingRight=4;overflow=hidden;rotatable=0;points=[[0,0.5],[1,0.5]];portConstraint=eastwest;whiteSpace=wrap;html=1;" parent="PluiV_uVmu6kRXKaNqSc-33" vertex="1">
          <mxGeometry y="839" width="600" height="26" as="geometry" />
        </mxCell>
        <mxCell id="DgH2YeEBz2LFjA33P2SG-41" value="+ getRidersRankInStage() : int[]" style="text;strokeColor=none;fillColor=none;align=left;verticalAlign=top;spacingLeft=4;spacingRight=4;overflow=hidden;rotatable=0;points=[[0,0.5],[1,0.5]];portConstraint=eastwest;whiteSpace=wrap;html=1;" parent="PluiV_uVmu6kRXKaNqSc-33" vertex="1">
          <mxGeometry y="865" width="600" height="26" as="geometry" />
        </mxCell>
        <mxCell id="DgH2YeEBz2LFjA33P2SG-42" value="+ getRankedAdjustedElapsedTimesInStage(): LocalTime[]" style="text;strokeColor=none;fillColor=none;align=left;verticalAlign=top;spacingLeft=4;spacingRight=4;overflow=hidden;rotatable=0;points=[[0,0.5],[1,0.5]];portConstraint=eastwest;whiteSpace=wrap;html=1;" parent="PluiV_uVmu6kRXKaNqSc-33" vertex="1">
          <mxGeometry y="891" width="600" height="26" as="geometry" />
        </mxCell>
        <mxCell id="MvrAgjhzQsgvp2eCR5wt-10" style="edgeStyle=orthogonalEdgeStyle;rounded=0;orthogonalLoop=1;jettySize=auto;html=1;endArrow=block;endFill=0;dashed=1;dashPattern=8 8;" edge="1" parent="1" source="PluiV_uVmu6kRXKaNqSc-55" target="MvrAgjhzQsgvp2eCR5wt-1">
          <mxGeometry relative="1" as="geometry">
            <Array as="points">
              <mxPoint x="1880" y="610" />
              <mxPoint x="1880" y="610" />
            </Array>
          </mxGeometry>
        </mxCell>
        <mxCell id="PluiV_uVmu6kRXKaNqSc-55" value="&lt;span style=&quot;font-weight: normal;&quot;&gt;«abstract»&lt;br style=&quot;border-color: var(--border-color);&quot;&gt;&lt;/span&gt;&lt;b style=&quot;border-color: var(--border-color);&quot;&gt;Checkpoint&lt;/b&gt;" style="swimlane;fontStyle=1;align=center;verticalAlign=top;childLayout=stackLayout;horizontal=1;startSize=40;horizontalStack=0;resizeParent=1;resizeParentMax=0;resizeLast=0;collapsible=1;marginBottom=0;whiteSpace=wrap;html=1;" parent="1" vertex="1">
          <mxGeometry x="1805" y="690" width="340" height="386" as="geometry" />
        </mxCell>
        <mxCell id="PluiV_uVmu6kRXKaNqSc-56" value="- &lt;u&gt;idsUsed&lt;/u&gt;: ArrayList&amp;lt;Integer&amp;gt;" style="text;strokeColor=none;fillColor=none;align=left;verticalAlign=top;spacingLeft=4;spacingRight=4;overflow=hidden;rotatable=0;points=[[0,0.5],[1,0.5]];portConstraint=eastwest;whiteSpace=wrap;html=1;fontStyle=0" parent="PluiV_uVmu6kRXKaNqSc-55" vertex="1">
          <mxGeometry y="40" width="340" height="26" as="geometry" />
        </mxCell>
        <mxCell id="PluiV_uVmu6kRXKaNqSc-61" value="# passTimes: HashMap&amp;lt;Integer, Localtime&amp;gt;" style="text;strokeColor=none;fillColor=none;align=left;verticalAlign=top;spacingLeft=4;spacingRight=4;overflow=hidden;rotatable=0;points=[[0,0.5],[1,0.5]];portConstraint=eastwest;whiteSpace=wrap;html=1;" parent="PluiV_uVmu6kRXKaNqSc-55" vertex="1">
          <mxGeometry y="66" width="340" height="26" as="geometry" />
        </mxCell>
        <mxCell id="PluiV_uVmu6kRXKaNqSc-60" value="- location: double" style="text;strokeColor=none;fillColor=none;align=left;verticalAlign=top;spacingLeft=4;spacingRight=4;overflow=hidden;rotatable=0;points=[[0,0.5],[1,0.5]];portConstraint=eastwest;whiteSpace=wrap;html=1;" parent="PluiV_uVmu6kRXKaNqSc-55" vertex="1">
          <mxGeometry y="92" width="340" height="26" as="geometry" />
        </mxCell>
        <mxCell id="PluiV_uVmu6kRXKaNqSc-90" value="- myType: CheckpointType" style="text;strokeColor=none;fillColor=none;align=left;verticalAlign=top;spacingLeft=4;spacingRight=4;overflow=hidden;rotatable=0;points=[[0,0.5],[1,0.5]];portConstraint=eastwest;whiteSpace=wrap;html=1;" parent="PluiV_uVmu6kRXKaNqSc-55" vertex="1">
          <mxGeometry y="118" width="340" height="26" as="geometry" />
        </mxCell>
        <mxCell id="8Eclr8xNryOz6sF5g85--4" value="- parentStage : Stage" style="text;strokeColor=none;fillColor=none;align=left;verticalAlign=top;spacingLeft=4;spacingRight=4;overflow=hidden;rotatable=0;points=[[0,0.5],[1,0.5]];portConstraint=eastwest;whiteSpace=wrap;html=1;" parent="PluiV_uVmu6kRXKaNqSc-55" vertex="1">
          <mxGeometry y="144" width="340" height="26" as="geometry" />
        </mxCell>
        <mxCell id="PluiV_uVmu6kRXKaNqSc-62" value="" style="line;strokeWidth=1;fillColor=none;align=left;verticalAlign=middle;spacingTop=-1;spacingLeft=3;spacingRight=3;rotatable=0;labelPosition=right;points=[];portConstraint=eastwest;strokeColor=inherit;" parent="PluiV_uVmu6kRXKaNqSc-55" vertex="1">
          <mxGeometry y="170" width="340" height="8" as="geometry" />
        </mxCell>
        <mxCell id="PluiV_uVmu6kRXKaNqSc-64" value="+ recordTime(int riderId, LocalTime passTime) : void" style="text;strokeColor=none;fillColor=none;align=left;verticalAlign=top;spacingLeft=4;spacingRight=4;overflow=hidden;rotatable=0;points=[[0,0.5],[1,0.5]];portConstraint=eastwest;whiteSpace=wrap;html=1;" parent="PluiV_uVmu6kRXKaNqSc-55" vertex="1">
          <mxGeometry y="178" width="340" height="26" as="geometry" />
        </mxCell>
        <mxCell id="yfuVovTwI_u2sJsiJ5sg-2" value="+ &lt;u&gt;pushCheckpoint(int id, Checkpoint Checkpoint)&lt;/u&gt;: void" style="text;strokeColor=none;fillColor=none;align=left;verticalAlign=top;spacingLeft=4;spacingRight=4;overflow=hidden;rotatable=0;points=[[0,0.5],[1,0.5]];portConstraint=eastwest;whiteSpace=wrap;html=1;" parent="PluiV_uVmu6kRXKaNqSc-55" vertex="1">
          <mxGeometry y="204" width="340" height="26" as="geometry" />
        </mxCell>
        <mxCell id="DgH2YeEBz2LFjA33P2SG-45" value="+ getPassTime(int riderId) : LocalTime" style="text;strokeColor=none;fillColor=none;align=left;verticalAlign=top;spacingLeft=4;spacingRight=4;overflow=hidden;rotatable=0;points=[[0,0.5],[1,0.5]];portConstraint=eastwest;whiteSpace=wrap;html=1;" parent="PluiV_uVmu6kRXKaNqSc-55" vertex="1">
          <mxGeometry y="230" width="340" height="26" as="geometry" />
        </mxCell>
        <mxCell id="DgH2YeEBz2LFjA33P2SG-44" value="+ removeRider(int riderId) : void" style="text;strokeColor=none;fillColor=none;align=left;verticalAlign=top;spacingLeft=4;spacingRight=4;overflow=hidden;rotatable=0;points=[[0,0.5],[1,0.5]];portConstraint=eastwest;whiteSpace=wrap;html=1;" parent="PluiV_uVmu6kRXKaNqSc-55" vertex="1">
          <mxGeometry y="256" width="340" height="26" as="geometry" />
        </mxCell>
        <mxCell id="PluiV_uVmu6kRXKaNqSc-68" value="getters" style="text;strokeColor=#d6b656;fillColor=#fff2cc;align=center;verticalAlign=top;spacingLeft=4;spacingRight=4;overflow=hidden;rotatable=0;points=[[0,0.5],[1,0.5]];portConstraint=eastwest;whiteSpace=wrap;html=1;fontStyle=2" parent="PluiV_uVmu6kRXKaNqSc-55" vertex="1">
          <mxGeometry y="282" width="340" height="26" as="geometry" />
        </mxCell>
        <mxCell id="PluiV_uVmu6kRXKaNqSc-63" value="+ getParentStage() : Stage" style="text;strokeColor=none;fillColor=none;align=left;verticalAlign=top;spacingLeft=4;spacingRight=4;overflow=hidden;rotatable=0;points=[[0,0.5],[1,0.5]];portConstraint=eastwest;whiteSpace=wrap;html=1;" parent="PluiV_uVmu6kRXKaNqSc-55" vertex="1">
          <mxGeometry y="308" width="340" height="26" as="geometry" />
        </mxCell>
        <mxCell id="PluiV_uVmu6kRXKaNqSc-129" value="+ getMountainPoints(int rider): int" style="text;strokeColor=none;fillColor=none;align=left;verticalAlign=top;spacingLeft=4;spacingRight=4;overflow=hidden;rotatable=0;points=[[0,0.5],[1,0.5]];portConstraint=eastwest;whiteSpace=wrap;html=1;fontStyle=2" parent="PluiV_uVmu6kRXKaNqSc-55" vertex="1">
          <mxGeometry y="334" width="340" height="26" as="geometry" />
        </mxCell>
        <mxCell id="PluiV_uVmu6kRXKaNqSc-128" value="+ getIntermediateSprintPoints(int rider): int" style="text;strokeColor=none;fillColor=none;align=left;verticalAlign=top;spacingLeft=4;spacingRight=4;overflow=hidden;rotatable=0;points=[[0,0.5],[1,0.5]];portConstraint=eastwest;whiteSpace=wrap;html=1;fontStyle=2" parent="PluiV_uVmu6kRXKaNqSc-55" vertex="1">
          <mxGeometry y="360" width="340" height="26" as="geometry" />
        </mxCell>
        <mxCell id="PluiV_uVmu6kRXKaNqSc-78" style="edgeStyle=orthogonalEdgeStyle;rounded=0;orthogonalLoop=1;jettySize=auto;html=1;endArrow=block;endFill=0;dashed=1;dashPattern=8 8;" parent="1" source="PluiV_uVmu6kRXKaNqSc-70" target="PluiV_uVmu6kRXKaNqSc-55" edge="1">
          <mxGeometry relative="1" as="geometry" />
        </mxCell>
        <mxCell id="PluiV_uVmu6kRXKaNqSc-70" value="IntermediateSprint" style="swimlane;fontStyle=1;align=center;verticalAlign=top;childLayout=stackLayout;horizontal=1;startSize=26;horizontalStack=0;resizeParent=1;resizeParentMax=0;resizeLast=0;collapsible=1;marginBottom=0;whiteSpace=wrap;html=1;" parent="1" vertex="1">
          <mxGeometry x="2265" y="690" width="280" height="104" as="geometry" />
        </mxCell>
        <mxCell id="PluiV_uVmu6kRXKaNqSc-88" value="getters" style="text;strokeColor=#d6b656;fillColor=#fff2cc;align=center;verticalAlign=top;spacingLeft=4;spacingRight=4;overflow=hidden;rotatable=0;points=[[0,0.5],[1,0.5]];portConstraint=eastwest;whiteSpace=wrap;html=1;fontStyle=2" parent="PluiV_uVmu6kRXKaNqSc-70" vertex="1">
          <mxGeometry y="26" width="280" height="26" as="geometry" />
        </mxCell>
        <mxCell id="PluiV_uVmu6kRXKaNqSc-124" value="&lt;span style=&quot;font-style: italic;&quot;&gt;+ getMountainPoints(int rider): int&lt;/span&gt;" style="text;strokeColor=none;fillColor=none;align=left;verticalAlign=top;spacingLeft=4;spacingRight=4;overflow=hidden;rotatable=0;points=[[0,0.5],[1,0.5]];portConstraint=eastwest;whiteSpace=wrap;html=1;fontStyle=0" parent="PluiV_uVmu6kRXKaNqSc-70" vertex="1">
          <mxGeometry y="52" width="280" height="26" as="geometry" />
        </mxCell>
        <mxCell id="PluiV_uVmu6kRXKaNqSc-125" value="&lt;span style=&quot;font-style: italic;&quot;&gt;+ getIntermediateSprintPoints(int rider): int&lt;/span&gt;" style="text;strokeColor=none;fillColor=none;align=left;verticalAlign=top;spacingLeft=4;spacingRight=4;overflow=hidden;rotatable=0;points=[[0,0.5],[1,0.5]];portConstraint=eastwest;whiteSpace=wrap;html=1;fontStyle=0" parent="PluiV_uVmu6kRXKaNqSc-70" vertex="1">
          <mxGeometry y="78" width="280" height="26" as="geometry" />
        </mxCell>
        <mxCell id="PluiV_uVmu6kRXKaNqSc-79" style="edgeStyle=orthogonalEdgeStyle;rounded=0;orthogonalLoop=1;jettySize=auto;html=1;endArrow=block;endFill=0;dashed=1;dashPattern=8 8;" parent="1" source="PluiV_uVmu6kRXKaNqSc-74" target="PluiV_uVmu6kRXKaNqSc-55" edge="1">
          <mxGeometry relative="1" as="geometry" />
        </mxCell>
        <mxCell id="PluiV_uVmu6kRXKaNqSc-74" value="Climb" style="swimlane;fontStyle=1;align=center;verticalAlign=top;childLayout=stackLayout;horizontal=1;startSize=26;horizontalStack=0;resizeParent=1;resizeParentMax=0;resizeLast=0;collapsible=1;marginBottom=0;whiteSpace=wrap;html=1;" parent="1" vertex="1">
          <mxGeometry x="2265" y="860" width="280" height="216" as="geometry" />
        </mxCell>
        <mxCell id="PluiV_uVmu6kRXKaNqSc-75" value="- avgGradient: double" style="text;strokeColor=none;fillColor=none;align=left;verticalAlign=top;spacingLeft=4;spacingRight=4;overflow=hidden;rotatable=0;points=[[0,0.5],[1,0.5]];portConstraint=eastwest;whiteSpace=wrap;html=1;" parent="PluiV_uVmu6kRXKaNqSc-74" vertex="1">
          <mxGeometry y="26" width="280" height="26" as="geometry" />
        </mxCell>
        <mxCell id="PluiV_uVmu6kRXKaNqSc-84" value="- length: double" style="text;strokeColor=none;fillColor=none;align=left;verticalAlign=top;spacingLeft=4;spacingRight=4;overflow=hidden;rotatable=0;points=[[0,0.5],[1,0.5]];portConstraint=eastwest;whiteSpace=wrap;html=1;" parent="PluiV_uVmu6kRXKaNqSc-74" vertex="1">
          <mxGeometry y="52" width="280" height="26" as="geometry" />
        </mxCell>
        <mxCell id="PluiV_uVmu6kRXKaNqSc-76" value="" style="line;strokeWidth=1;fillColor=none;align=left;verticalAlign=middle;spacingTop=-1;spacingLeft=3;spacingRight=3;rotatable=0;labelPosition=right;points=[];portConstraint=eastwest;strokeColor=inherit;" parent="PluiV_uVmu6kRXKaNqSc-74" vertex="1">
          <mxGeometry y="78" width="280" height="8" as="geometry" />
        </mxCell>
        <mxCell id="PluiV_uVmu6kRXKaNqSc-87" value="getters" style="text;strokeColor=#d6b656;fillColor=#fff2cc;align=center;verticalAlign=top;spacingLeft=4;spacingRight=4;overflow=hidden;rotatable=0;points=[[0,0.5],[1,0.5]];portConstraint=eastwest;whiteSpace=wrap;html=1;fontStyle=2" parent="PluiV_uVmu6kRXKaNqSc-74" vertex="1">
          <mxGeometry y="86" width="280" height="26" as="geometry" />
        </mxCell>
        <mxCell id="DgH2YeEBz2LFjA33P2SG-46" value="+ getLength(): Double" style="text;strokeColor=none;fillColor=none;align=left;verticalAlign=top;spacingLeft=4;spacingRight=4;overflow=hidden;rotatable=0;points=[[0,0.5],[1,0.5]];portConstraint=eastwest;whiteSpace=wrap;html=1;" parent="PluiV_uVmu6kRXKaNqSc-74" vertex="1">
          <mxGeometry y="112" width="280" height="26" as="geometry" />
        </mxCell>
        <mxCell id="DgH2YeEBz2LFjA33P2SG-47" value="+ getAverageGradient() : Double" style="text;strokeColor=none;fillColor=none;align=left;verticalAlign=top;spacingLeft=4;spacingRight=4;overflow=hidden;rotatable=0;points=[[0,0.5],[1,0.5]];portConstraint=eastwest;whiteSpace=wrap;html=1;" parent="PluiV_uVmu6kRXKaNqSc-74" vertex="1">
          <mxGeometry y="138" width="280" height="26" as="geometry" />
        </mxCell>
        <mxCell id="PluiV_uVmu6kRXKaNqSc-127" value="&lt;span style=&quot;font-style: italic;&quot;&gt;+ getMountainPoints(int rider): int&lt;/span&gt;" style="text;strokeColor=none;fillColor=none;align=left;verticalAlign=top;spacingLeft=4;spacingRight=4;overflow=hidden;rotatable=0;points=[[0,0.5],[1,0.5]];portConstraint=eastwest;whiteSpace=wrap;html=1;fontStyle=0" parent="PluiV_uVmu6kRXKaNqSc-74" vertex="1">
          <mxGeometry y="164" width="280" height="26" as="geometry" />
        </mxCell>
        <mxCell id="PluiV_uVmu6kRXKaNqSc-126" value="&lt;span style=&quot;font-style: italic;&quot;&gt;+ getIntermediateSprintPoints(int rider): int&lt;/span&gt;" style="text;strokeColor=none;fillColor=none;align=left;verticalAlign=top;spacingLeft=4;spacingRight=4;overflow=hidden;rotatable=0;points=[[0,0.5],[1,0.5]];portConstraint=eastwest;whiteSpace=wrap;html=1;fontStyle=0" parent="PluiV_uVmu6kRXKaNqSc-74" vertex="1">
          <mxGeometry y="190" width="280" height="26" as="geometry" />
        </mxCell>
        <mxCell id="MvrAgjhzQsgvp2eCR5wt-11" style="edgeStyle=orthogonalEdgeStyle;rounded=0;orthogonalLoop=1;jettySize=auto;html=1;endArrow=block;endFill=0;dashed=1;dashPattern=8 8;" edge="1" parent="1" source="PluiV_uVmu6kRXKaNqSc-94" target="MvrAgjhzQsgvp2eCR5wt-1">
          <mxGeometry relative="1" as="geometry">
            <Array as="points">
              <mxPoint x="880" y="757" />
              <mxPoint x="880" y="-90" />
              <mxPoint x="1880" y="-90" />
            </Array>
          </mxGeometry>
        </mxCell>
        <mxCell id="PluiV_uVmu6kRXKaNqSc-94" value="Rider" style="swimlane;fontStyle=1;align=center;verticalAlign=top;childLayout=stackLayout;horizontal=1;startSize=26;horizontalStack=0;resizeParent=1;resizeParentMax=0;resizeLast=0;collapsible=1;marginBottom=0;whiteSpace=wrap;html=1;" parent="1" vertex="1">
          <mxGeometry x="470" y="610" width="280" height="294" as="geometry" />
        </mxCell>
        <mxCell id="PluiV_uVmu6kRXKaNqSc-95" value="- &lt;u&gt;idsUsed&lt;/u&gt;&amp;nbsp;: ArrayList&amp;lt;Integer&amp;gt;" style="text;strokeColor=none;fillColor=none;align=left;verticalAlign=top;spacingLeft=4;spacingRight=4;overflow=hidden;rotatable=0;points=[[0,0.5],[1,0.5]];portConstraint=eastwest;whiteSpace=wrap;html=1;fontStyle=0" parent="PluiV_uVmu6kRXKaNqSc-94" vertex="1">
          <mxGeometry y="26" width="280" height="26" as="geometry" />
        </mxCell>
        <mxCell id="k0yF1Xdb5lIH336SSwAc-2" value="- myTeam: Team" style="text;strokeColor=none;fillColor=none;align=left;verticalAlign=top;spacingLeft=4;spacingRight=4;overflow=hidden;rotatable=0;points=[[0,0.5],[1,0.5]];portConstraint=eastwest;whiteSpace=wrap;html=1;" parent="PluiV_uVmu6kRXKaNqSc-94" vertex="1">
          <mxGeometry y="52" width="280" height="26" as="geometry" />
        </mxCell>
        <mxCell id="PluiV_uVmu6kRXKaNqSc-97" value="- name: String" style="text;strokeColor=none;fillColor=none;align=left;verticalAlign=top;spacingLeft=4;spacingRight=4;overflow=hidden;rotatable=0;points=[[0,0.5],[1,0.5]];portConstraint=eastwest;whiteSpace=wrap;html=1;" parent="PluiV_uVmu6kRXKaNqSc-94" vertex="1">
          <mxGeometry y="78" width="280" height="26" as="geometry" />
        </mxCell>
        <mxCell id="PluiV_uVmu6kRXKaNqSc-109" value="- yearOfBirth: int" style="text;strokeColor=none;fillColor=none;align=left;verticalAlign=top;spacingLeft=4;spacingRight=4;overflow=hidden;rotatable=0;points=[[0,0.5],[1,0.5]];portConstraint=eastwest;whiteSpace=wrap;html=1;" parent="PluiV_uVmu6kRXKaNqSc-94" vertex="1">
          <mxGeometry y="104" width="280" height="26" as="geometry" />
        </mxCell>
        <mxCell id="PluiV_uVmu6kRXKaNqSc-102" value="" style="line;strokeWidth=1;fillColor=none;align=left;verticalAlign=middle;spacingTop=-1;spacingLeft=3;spacingRight=3;rotatable=0;labelPosition=right;points=[];portConstraint=eastwest;strokeColor=inherit;" parent="PluiV_uVmu6kRXKaNqSc-94" vertex="1">
          <mxGeometry y="130" width="280" height="8" as="geometry" />
        </mxCell>
        <mxCell id="DgH2YeEBz2LFjA33P2SG-8" value="+ remove() : void" style="text;strokeColor=none;fillColor=none;align=left;verticalAlign=top;spacingLeft=4;spacingRight=4;overflow=hidden;rotatable=0;points=[[0,0.5],[1,0.5]];portConstraint=eastwest;whiteSpace=wrap;html=1;" parent="PluiV_uVmu6kRXKaNqSc-94" vertex="1">
          <mxGeometry y="138" width="280" height="26" as="geometry" />
        </mxCell>
        <mxCell id="yfuVovTwI_u2sJsiJ5sg-4" value="+ registerForStage(int stageId) : void&amp;nbsp;" style="text;strokeColor=none;fillColor=none;align=left;verticalAlign=top;spacingLeft=4;spacingRight=4;overflow=hidden;rotatable=0;points=[[0,0.5],[1,0.5]];portConstraint=eastwest;whiteSpace=wrap;html=1;" parent="PluiV_uVmu6kRXKaNqSc-94" vertex="1">
          <mxGeometry y="164" width="280" height="26" as="geometry" />
        </mxCell>
        <mxCell id="PluiV_uVmu6kRXKaNqSc-105" value="getters" style="text;strokeColor=#d6b656;fillColor=#fff2cc;align=center;verticalAlign=top;spacingLeft=4;spacingRight=4;overflow=hidden;rotatable=0;points=[[0,0.5],[1,0.5]];portConstraint=eastwest;whiteSpace=wrap;html=1;fontStyle=2" parent="PluiV_uVmu6kRXKaNqSc-94" vertex="1">
          <mxGeometry y="190" width="280" height="26" as="geometry" />
        </mxCell>
        <mxCell id="DgH2YeEBz2LFjA33P2SG-10" value="+ getMyTeam() : Team" style="text;strokeColor=none;fillColor=none;align=left;verticalAlign=top;spacingLeft=4;spacingRight=4;overflow=hidden;rotatable=0;points=[[0,0.5],[1,0.5]];portConstraint=eastwest;whiteSpace=wrap;html=1;" parent="PluiV_uVmu6kRXKaNqSc-94" vertex="1">
          <mxGeometry y="216" width="280" height="26" as="geometry" />
        </mxCell>
        <mxCell id="PluiV_uVmu6kRXKaNqSc-104" value="+ getDetails() : String" style="text;strokeColor=none;fillColor=none;align=left;verticalAlign=top;spacingLeft=4;spacingRight=4;overflow=hidden;rotatable=0;points=[[0,0.5],[1,0.5]];portConstraint=eastwest;whiteSpace=wrap;html=1;" parent="PluiV_uVmu6kRXKaNqSc-94" vertex="1">
          <mxGeometry y="242" width="280" height="26" as="geometry" />
        </mxCell>
        <mxCell id="DgH2YeEBz2LFjA33P2SG-9" value="+ getRegisteredStages() : ArrayList&amp;lt;Stage&amp;gt;" style="text;strokeColor=none;fillColor=none;align=left;verticalAlign=top;spacingLeft=4;spacingRight=4;overflow=hidden;rotatable=0;points=[[0,0.5],[1,0.5]];portConstraint=eastwest;whiteSpace=wrap;html=1;" parent="PluiV_uVmu6kRXKaNqSc-94" vertex="1">
          <mxGeometry y="268" width="280" height="26" as="geometry" />
        </mxCell>
        <mxCell id="MvrAgjhzQsgvp2eCR5wt-12" style="edgeStyle=elbowEdgeStyle;rounded=0;orthogonalLoop=1;jettySize=auto;html=1;entryX=0.25;entryY=0;entryDx=0;entryDy=0;endArrow=block;endFill=0;elbow=vertical;dashed=1;dashPattern=8 8;" edge="1" parent="1" source="PluiV_uVmu6kRXKaNqSc-110" target="MvrAgjhzQsgvp2eCR5wt-1">
          <mxGeometry relative="1" as="geometry">
            <Array as="points">
              <mxPoint x="1240" y="-90" />
            </Array>
          </mxGeometry>
        </mxCell>
        <mxCell id="PluiV_uVmu6kRXKaNqSc-110" value="Team" style="swimlane;fontStyle=1;align=center;verticalAlign=top;childLayout=stackLayout;horizontal=1;startSize=26;horizontalStack=0;resizeParent=1;resizeParentMax=0;resizeLast=0;collapsible=1;marginBottom=0;whiteSpace=wrap;html=1;" parent="1" vertex="1">
          <mxGeometry x="470" y="150" width="280" height="320" as="geometry" />
        </mxCell>
        <mxCell id="PluiV_uVmu6kRXKaNqSc-111" value="- &lt;u&gt;idsUsed&lt;/u&gt; : ArrayList&amp;lt;Integer&amp;gt;" style="text;strokeColor=none;fillColor=none;align=left;verticalAlign=top;spacingLeft=4;spacingRight=4;overflow=hidden;rotatable=0;points=[[0,0.5],[1,0.5]];portConstraint=eastwest;whiteSpace=wrap;html=1;fontStyle=0" parent="PluiV_uVmu6kRXKaNqSc-110" vertex="1">
          <mxGeometry y="26" width="280" height="26" as="geometry" />
        </mxCell>
        <mxCell id="PluiV_uVmu6kRXKaNqSc-113" value="- name: String" style="text;strokeColor=none;fillColor=none;align=left;verticalAlign=top;spacingLeft=4;spacingRight=4;overflow=hidden;rotatable=0;points=[[0,0.5],[1,0.5]];portConstraint=eastwest;whiteSpace=wrap;html=1;" parent="PluiV_uVmu6kRXKaNqSc-110" vertex="1">
          <mxGeometry y="52" width="280" height="26" as="geometry" />
        </mxCell>
        <mxCell id="PluiV_uVmu6kRXKaNqSc-114" value="- description: String" style="text;strokeColor=none;fillColor=none;align=left;verticalAlign=top;spacingLeft=4;spacingRight=4;overflow=hidden;rotatable=0;points=[[0,0.5],[1,0.5]];portConstraint=eastwest;whiteSpace=wrap;html=1;" parent="PluiV_uVmu6kRXKaNqSc-110" vertex="1">
          <mxGeometry y="78" width="280" height="26" as="geometry" />
        </mxCell>
        <mxCell id="PluiV_uVmu6kRXKaNqSc-119" value="- myRiders: HashMap&amp;lt;Integer, Rider&amp;gt;" style="text;strokeColor=none;fillColor=none;align=left;verticalAlign=top;spacingLeft=4;spacingRight=4;overflow=hidden;rotatable=0;points=[[0,0.5],[1,0.5]];portConstraint=eastwest;whiteSpace=wrap;html=1;" parent="PluiV_uVmu6kRXKaNqSc-110" vertex="1">
          <mxGeometry y="104" width="280" height="26" as="geometry" />
        </mxCell>
        <mxCell id="PluiV_uVmu6kRXKaNqSc-115" value="" style="line;strokeWidth=1;fillColor=none;align=left;verticalAlign=middle;spacingTop=-1;spacingLeft=3;spacingRight=3;rotatable=0;labelPosition=right;points=[];portConstraint=eastwest;strokeColor=inherit;" parent="PluiV_uVmu6kRXKaNqSc-110" vertex="1">
          <mxGeometry y="130" width="280" height="8" as="geometry" />
        </mxCell>
        <mxCell id="DgH2YeEBz2LFjA33P2SG-4" value="+ remove() : void" style="text;strokeColor=none;fillColor=none;align=left;verticalAlign=top;spacingLeft=4;spacingRight=4;overflow=hidden;rotatable=0;points=[[0,0.5],[1,0.5]];portConstraint=eastwest;whiteSpace=wrap;html=1;" parent="PluiV_uVmu6kRXKaNqSc-110" vertex="1">
          <mxGeometry y="138" width="280" height="26" as="geometry" />
        </mxCell>
        <mxCell id="DgH2YeEBz2LFjA33P2SG-6" value="+ addRider(Rider rider) : void" style="text;strokeColor=none;fillColor=none;align=left;verticalAlign=top;spacingLeft=4;spacingRight=4;overflow=hidden;rotatable=0;points=[[0,0.5],[1,0.5]];portConstraint=eastwest;whiteSpace=wrap;html=1;" parent="PluiV_uVmu6kRXKaNqSc-110" vertex="1">
          <mxGeometry y="164" width="280" height="26" as="geometry" />
        </mxCell>
        <mxCell id="DgH2YeEBz2LFjA33P2SG-7" value="+ removeRider(int RiderId) : void" style="text;strokeColor=none;fillColor=none;align=left;verticalAlign=top;spacingLeft=4;spacingRight=4;overflow=hidden;rotatable=0;points=[[0,0.5],[1,0.5]];portConstraint=eastwest;whiteSpace=wrap;html=1;" parent="PluiV_uVmu6kRXKaNqSc-110" vertex="1">
          <mxGeometry y="190" width="280" height="26" as="geometry" />
        </mxCell>
        <mxCell id="PluiV_uVmu6kRXKaNqSc-118" value="getters" style="text;strokeColor=#d6b656;fillColor=#fff2cc;align=center;verticalAlign=top;spacingLeft=4;spacingRight=4;overflow=hidden;rotatable=0;points=[[0,0.5],[1,0.5]];portConstraint=eastwest;whiteSpace=wrap;html=1;fontStyle=2" parent="PluiV_uVmu6kRXKaNqSc-110" vertex="1">
          <mxGeometry y="216" width="280" height="26" as="geometry" />
        </mxCell>
        <mxCell id="PluiV_uVmu6kRXKaNqSc-116" value="+ getRiders() : HashMap&amp;lt;Integer,Rider&amp;gt;" style="text;strokeColor=none;fillColor=none;align=left;verticalAlign=top;spacingLeft=4;spacingRight=4;overflow=hidden;rotatable=0;points=[[0,0.5],[1,0.5]];portConstraint=eastwest;whiteSpace=wrap;html=1;" parent="PluiV_uVmu6kRXKaNqSc-110" vertex="1">
          <mxGeometry y="242" width="280" height="26" as="geometry" />
        </mxCell>
        <mxCell id="yfuVovTwI_u2sJsiJ5sg-5" value="+ getName() : String" style="text;strokeColor=none;fillColor=none;align=left;verticalAlign=top;spacingLeft=4;spacingRight=4;overflow=hidden;rotatable=0;points=[[0,0.5],[1,0.5]];portConstraint=eastwest;whiteSpace=wrap;html=1;" parent="PluiV_uVmu6kRXKaNqSc-110" vertex="1">
          <mxGeometry y="268" width="280" height="26" as="geometry" />
        </mxCell>
        <mxCell id="DgH2YeEBz2LFjA33P2SG-5" value="+ getDetails() : String" style="text;strokeColor=none;fillColor=none;align=left;verticalAlign=top;spacingLeft=4;spacingRight=4;overflow=hidden;rotatable=0;points=[[0,0.5],[1,0.5]];portConstraint=eastwest;whiteSpace=wrap;html=1;" parent="PluiV_uVmu6kRXKaNqSc-110" vertex="1">
          <mxGeometry y="294" width="280" height="26" as="geometry" />
        </mxCell>
        <mxCell id="PluiV_uVmu6kRXKaNqSc-136" value="1" style="endArrow=open;html=1;endSize=12;startArrow=diamondThin;startSize=14;startFill=1;edgeStyle=orthogonalEdgeStyle;align=left;verticalAlign=bottom;rounded=0;" parent="1" source="PluiV_uVmu6kRXKaNqSc-33" target="PluiV_uVmu6kRXKaNqSc-55" edge="1">
          <mxGeometry x="-0.8281" y="10" relative="1" as="geometry">
            <mxPoint x="2320" y="830" as="sourcePoint" />
            <mxPoint x="2530" y="890" as="targetPoint" />
            <mxPoint as="offset" />
            <Array as="points">
              <mxPoint x="1960" y="638" />
            </Array>
          </mxGeometry>
        </mxCell>
        <mxCell id="PluiV_uVmu6kRXKaNqSc-139" value="1" style="endArrow=open;html=1;endSize=12;startArrow=diamondThin;startSize=14;startFill=1;edgeStyle=orthogonalEdgeStyle;align=left;verticalAlign=bottom;rounded=0;" parent="1" source="PluiV_uVmu6kRXKaNqSc-110" target="PluiV_uVmu6kRXKaNqSc-94" edge="1">
          <mxGeometry x="-0.25" y="10" relative="1" as="geometry">
            <mxPoint x="1490" y="324" as="sourcePoint" />
            <mxPoint x="1765" y="710" as="targetPoint" />
            <mxPoint as="offset" />
          </mxGeometry>
        </mxCell>
        <mxCell id="PluiV_uVmu6kRXKaNqSc-25" value="Static attributes and methods indicated with &lt;u&gt;underline&lt;/u&gt;." style="text;html=1;align=center;verticalAlign=middle;whiteSpace=wrap;rounded=0;fillColor=#f8cecc;strokeColor=#b85450;sketch=1;curveFitting=1;jiggle=2;fillStyle=auto;" parent="1" vertex="1">
          <mxGeometry x="1560" y="-420" width="230" height="100" as="geometry" />
        </mxCell>
        <mxCell id="yfuVovTwI_u2sJsiJ5sg-6" value="SerializedData" style="swimlane;fontStyle=1;align=center;verticalAlign=top;childLayout=stackLayout;horizontal=1;startSize=26;horizontalStack=0;resizeParent=1;resizeParentMax=0;resizeLast=0;collapsible=1;marginBottom=0;whiteSpace=wrap;html=1;" parent="1" vertex="1">
          <mxGeometry x="400" y="-370" width="390" height="216" as="geometry" />
        </mxCell>
        <mxCell id="yfuVovTwI_u2sJsiJ5sg-17" value="- HashMap&amp;lt;Integer, Race&amp;gt; races" style="text;strokeColor=none;fillColor=none;align=left;verticalAlign=top;spacingLeft=4;spacingRight=4;overflow=hidden;rotatable=0;points=[[0,0.5],[1,0.5]];portConstraint=eastwest;whiteSpace=wrap;html=1;" parent="yfuVovTwI_u2sJsiJ5sg-6" vertex="1">
          <mxGeometry y="26" width="390" height="26" as="geometry" />
        </mxCell>
        <mxCell id="yfuVovTwI_u2sJsiJ5sg-22" value="- HashMap&amp;lt;Integer, Team&amp;gt; teams&lt;div&gt;&lt;br&gt;&lt;/div&gt;" style="text;strokeColor=none;fillColor=none;align=left;verticalAlign=top;spacingLeft=4;spacingRight=4;overflow=hidden;rotatable=0;points=[[0,0.5],[1,0.5]];portConstraint=eastwest;whiteSpace=wrap;html=1;" parent="yfuVovTwI_u2sJsiJ5sg-6" vertex="1">
          <mxGeometry y="52" width="390" height="26" as="geometry" />
        </mxCell>
        <mxCell id="yfuVovTwI_u2sJsiJ5sg-12" value="" style="line;strokeWidth=1;fillColor=none;align=left;verticalAlign=middle;spacingTop=-1;spacingLeft=3;spacingRight=3;rotatable=0;labelPosition=right;points=[];portConstraint=eastwest;strokeColor=inherit;" parent="yfuVovTwI_u2sJsiJ5sg-6" vertex="1">
          <mxGeometry y="78" width="390" height="8" as="geometry" />
        </mxCell>
        <mxCell id="yfuVovTwI_u2sJsiJ5sg-21" value="+ &lt;u&gt;saveData&lt;/u&gt;(String filename, CyclingPortalImpl portal) : void" style="text;strokeColor=none;fillColor=none;align=left;verticalAlign=top;spacingLeft=4;spacingRight=4;overflow=hidden;rotatable=0;points=[[0,0.5],[1,0.5]];portConstraint=eastwest;whiteSpace=wrap;html=1;" parent="yfuVovTwI_u2sJsiJ5sg-6" vertex="1">
          <mxGeometry y="86" width="390" height="26" as="geometry" />
        </mxCell>
        <mxCell id="yfuVovTwI_u2sJsiJ5sg-8" value="+&amp;nbsp;&lt;u&gt;loadData&lt;/u&gt;(String filename, CyclingPortalImpl newPortal) : void" style="text;strokeColor=none;fillColor=none;align=left;verticalAlign=top;spacingLeft=4;spacingRight=4;overflow=hidden;rotatable=0;points=[[0,0.5],[1,0.5]];portConstraint=eastwest;whiteSpace=wrap;html=1;" parent="yfuVovTwI_u2sJsiJ5sg-6" vertex="1">
          <mxGeometry y="112" width="390" height="26" as="geometry" />
        </mxCell>
        <mxCell id="yfuVovTwI_u2sJsiJ5sg-16" value="getters" style="text;strokeColor=#d6b656;fillColor=#fff2cc;align=center;verticalAlign=top;spacingLeft=4;spacingRight=4;overflow=hidden;rotatable=0;points=[[0,0.5],[1,0.5]];portConstraint=eastwest;whiteSpace=wrap;html=1;fontStyle=2" parent="yfuVovTwI_u2sJsiJ5sg-6" vertex="1">
          <mxGeometry y="138" width="390" height="26" as="geometry" />
        </mxCell>
        <mxCell id="yfuVovTwI_u2sJsiJ5sg-20" value="+ getRaces() : HashMap&amp;lt;Integer, Race&amp;gt;" style="text;strokeColor=none;fillColor=none;align=left;verticalAlign=top;spacingLeft=4;spacingRight=4;overflow=hidden;rotatable=0;points=[[0,0.5],[1,0.5]];portConstraint=eastwest;whiteSpace=wrap;html=1;" parent="yfuVovTwI_u2sJsiJ5sg-6" vertex="1">
          <mxGeometry y="164" width="390" height="26" as="geometry" />
        </mxCell>
        <mxCell id="yfuVovTwI_u2sJsiJ5sg-18" value="+ getTeams() : HashMap&amp;lt;Integer, Team&amp;gt;" style="text;strokeColor=none;fillColor=none;align=left;verticalAlign=top;spacingLeft=4;spacingRight=4;overflow=hidden;rotatable=0;points=[[0,0.5],[1,0.5]];portConstraint=eastwest;whiteSpace=wrap;html=1;" parent="yfuVovTwI_u2sJsiJ5sg-6" vertex="1">
          <mxGeometry y="190" width="390" height="26" as="geometry" />
        </mxCell>
        <mxCell id="DgH2YeEBz2LFjA33P2SG-11" value="1" style="endArrow=open;html=1;endSize=12;startArrow=diamondThin;startSize=14;startFill=0;edgeStyle=orthogonalEdgeStyle;align=left;verticalAlign=bottom;rounded=0;entryX=0.5;entryY=0;entryDx=0;entryDy=0;exitX=0;exitY=0.5;exitDx=0;exitDy=0;" parent="1" source="VWBThBxiizGn_0epKAHP-3" target="PluiV_uVmu6kRXKaNqSc-110" edge="1">
          <mxGeometry x="-0.8992" y="-5" relative="1" as="geometry">
            <mxPoint x="1010" as="sourcePoint" />
            <mxPoint x="860" y="80" as="targetPoint" />
            <Array as="points">
              <mxPoint x="610" y="15" />
            </Array>
            <mxPoint as="offset" />
          </mxGeometry>
        </mxCell>
        <mxCell id="DgH2YeEBz2LFjA33P2SG-12" value="" style="endArrow=diamondThin;endFill=1;endSize=24;html=1;rounded=0;exitX=0.5;exitY=0;exitDx=0;exitDy=0;edgeStyle=orthogonalEdgeStyle;" parent="1" source="PluiV_uVmu6kRXKaNqSc-33" target="PluiV_uVmu6kRXKaNqSc-20" edge="1">
          <mxGeometry width="160" relative="1" as="geometry">
            <mxPoint x="1950" y="420" as="sourcePoint" />
            <mxPoint x="2470" y="40" as="targetPoint" />
          </mxGeometry>
        </mxCell>
        <mxCell id="DgH2YeEBz2LFjA33P2SG-13" value="1" style="endArrow=open;html=1;endSize=12;startArrow=diamondThin;startSize=14;startFill=0;edgeStyle=orthogonalEdgeStyle;align=left;verticalAlign=bottom;rounded=0;exitX=1;exitY=0.5;exitDx=0;exitDy=0;entryX=0.5;entryY=0;entryDx=0;entryDy=0;" parent="1" source="VWBThBxiizGn_0epKAHP-2" target="PluiV_uVmu6kRXKaNqSc-20" edge="1">
          <mxGeometry x="-1" y="3" relative="1" as="geometry">
            <mxPoint x="2020" y="390" as="sourcePoint" />
            <mxPoint x="2180" y="390" as="targetPoint" />
            <Array as="points">
              <mxPoint x="1920" y="-11" />
              <mxPoint x="1920" y="-80" />
              <mxPoint x="2175" y="-80" />
            </Array>
          </mxGeometry>
        </mxCell>
        <mxCell id="DgH2YeEBz2LFjA33P2SG-48" value="UniqueIdGenerator" style="swimlane;fontStyle=1;align=center;verticalAlign=top;childLayout=stackLayout;horizontal=1;startSize=26;horizontalStack=0;resizeParent=1;resizeParentMax=0;resizeLast=0;collapsible=1;marginBottom=0;whiteSpace=wrap;html=1;" parent="1" vertex="1">
          <mxGeometry x="890" y="-260" width="320" height="52" as="geometry" />
        </mxCell>
        <mxCell id="DgH2YeEBz2LFjA33P2SG-52" value="+ &lt;u&gt;calculateUniqueId&lt;/u&gt;(ArrayList&amp;lt;Integer&amp;gt; idsUsed) : int" style="text;strokeColor=none;fillColor=none;align=left;verticalAlign=top;spacingLeft=4;spacingRight=4;overflow=hidden;rotatable=0;points=[[0,0.5],[1,0.5]];portConstraint=eastwest;whiteSpace=wrap;html=1;" parent="DgH2YeEBz2LFjA33P2SG-48" vertex="1">
          <mxGeometry y="26" width="320" height="26" as="geometry" />
        </mxCell>
        <mxCell id="DgH2YeEBz2LFjA33P2SG-66" value="&lt;span style=&quot;font-weight: normal;&quot;&gt;&amp;lt; T extends Comparable &amp;lt;T&amp;gt; &amp;gt;&amp;nbsp;&lt;br style=&quot;border-color: var(--border-color);&quot;&gt;&lt;/span&gt;&lt;b style=&quot;border-color: var(--border-color);&quot;&gt;PointsHandler&lt;/b&gt;" style="swimlane;fontStyle=1;align=center;verticalAlign=top;childLayout=stackLayout;horizontal=1;startSize=40;horizontalStack=0;resizeParent=1;resizeParentMax=0;resizeLast=0;collapsible=1;marginBottom=0;whiteSpace=wrap;html=1;" parent="1" vertex="1">
          <mxGeometry x="1370" y="810" width="340" height="330" as="geometry" />
        </mxCell>
        <mxCell id="DgH2YeEBz2LFjA33P2SG-67" value="- riderRanks : int[]" style="text;strokeColor=none;fillColor=none;align=left;verticalAlign=top;spacingLeft=4;spacingRight=4;overflow=hidden;rotatable=0;points=[[0,0.5],[1,0.5]];portConstraint=eastwest;whiteSpace=wrap;html=1;fontStyle=0" parent="DgH2YeEBz2LFjA33P2SG-66" vertex="1">
          <mxGeometry y="40" width="340" height="26" as="geometry" />
        </mxCell>
        <mxCell id="DgH2YeEBz2LFjA33P2SG-68" value="- riderScores T[]" style="text;strokeColor=none;fillColor=none;align=left;verticalAlign=top;spacingLeft=4;spacingRight=4;overflow=hidden;rotatable=0;points=[[0,0.5],[1,0.5]];portConstraint=eastwest;whiteSpace=wrap;html=1;" parent="DgH2YeEBz2LFjA33P2SG-66" vertex="1">
          <mxGeometry y="66" width="340" height="26" as="geometry" />
        </mxCell>
        <mxCell id="DgH2YeEBz2LFjA33P2SG-69" value="- reversed: boolean" style="text;strokeColor=none;fillColor=none;align=left;verticalAlign=top;spacingLeft=4;spacingRight=4;overflow=hidden;rotatable=0;points=[[0,0.5],[1,0.5]];portConstraint=eastwest;whiteSpace=wrap;html=1;" parent="DgH2YeEBz2LFjA33P2SG-66" vertex="1">
          <mxGeometry y="92" width="340" height="26" as="geometry" />
        </mxCell>
        <mxCell id="DgH2YeEBz2LFjA33P2SG-70" value="- getScore : Function&amp;lt;Integer, T&amp;gt;" style="text;strokeColor=none;fillColor=none;align=left;verticalAlign=top;spacingLeft=4;spacingRight=4;overflow=hidden;rotatable=0;points=[[0,0.5],[1,0.5]];portConstraint=eastwest;whiteSpace=wrap;html=1;" parent="DgH2YeEBz2LFjA33P2SG-66" vertex="1">
          <mxGeometry y="118" width="340" height="26" as="geometry" />
        </mxCell>
        <mxCell id="DgH2YeEBz2LFjA33P2SG-71" value="- stages : ArrayList&amp;lt;Stage&amp;gt;" style="text;strokeColor=none;fillColor=none;align=left;verticalAlign=top;spacingLeft=4;spacingRight=4;overflow=hidden;rotatable=0;points=[[0,0.5],[1,0.5]];portConstraint=eastwest;whiteSpace=wrap;html=1;" parent="DgH2YeEBz2LFjA33P2SG-66" vertex="1">
          <mxGeometry y="144" width="340" height="26" as="geometry" />
        </mxCell>
        <mxCell id="DgH2YeEBz2LFjA33P2SG-73" value="" style="line;strokeWidth=1;fillColor=none;align=left;verticalAlign=middle;spacingTop=-1;spacingLeft=3;spacingRight=3;rotatable=0;labelPosition=right;points=[];portConstraint=eastwest;strokeColor=inherit;" parent="DgH2YeEBz2LFjA33P2SG-66" vertex="1">
          <mxGeometry y="170" width="340" height="8" as="geometry" />
        </mxCell>
        <mxCell id="DgH2YeEBz2LFjA33P2SG-74" value="- sortRiders() : void" style="text;strokeColor=none;fillColor=none;align=left;verticalAlign=top;spacingLeft=4;spacingRight=4;overflow=hidden;rotatable=0;points=[[0,0.5],[1,0.5]];portConstraint=eastwest;whiteSpace=wrap;html=1;" parent="DgH2YeEBz2LFjA33P2SG-66" vertex="1">
          <mxGeometry y="178" width="340" height="22" as="geometry" />
        </mxCell>
        <mxCell id="DgH2YeEBz2LFjA33P2SG-75" value="- convertToArray(ArrayList&amp;lt;T&amp;gt;) : T[]" style="text;strokeColor=none;fillColor=none;align=left;verticalAlign=top;spacingLeft=4;spacingRight=4;overflow=hidden;rotatable=0;points=[[0,0.5],[1,0.5]];portConstraint=eastwest;whiteSpace=wrap;html=1;" parent="DgH2YeEBz2LFjA33P2SG-66" vertex="1">
          <mxGeometry y="200" width="340" height="26" as="geometry" />
        </mxCell>
        <mxCell id="DgH2YeEBz2LFjA33P2SG-76" value="+ getPassTime(int riderId) : LocalTime" style="text;strokeColor=none;fillColor=none;align=left;verticalAlign=top;spacingLeft=4;spacingRight=4;overflow=hidden;rotatable=0;points=[[0,0.5],[1,0.5]];portConstraint=eastwest;whiteSpace=wrap;html=1;" parent="DgH2YeEBz2LFjA33P2SG-66" vertex="1">
          <mxGeometry y="226" width="340" height="26" as="geometry" />
        </mxCell>
        <mxCell id="DgH2YeEBz2LFjA33P2SG-79" value="getters" style="text;strokeColor=#d6b656;fillColor=#fff2cc;align=center;verticalAlign=top;spacingLeft=4;spacingRight=4;overflow=hidden;rotatable=0;points=[[0,0.5],[1,0.5]];portConstraint=eastwest;whiteSpace=wrap;html=1;fontStyle=2" parent="DgH2YeEBz2LFjA33P2SG-66" vertex="1">
          <mxGeometry y="252" width="340" height="26" as="geometry" />
        </mxCell>
        <mxCell id="DgH2YeEBz2LFjA33P2SG-80" value="+ getRiderRanks() : intp[" style="text;strokeColor=none;fillColor=none;align=left;verticalAlign=top;spacingLeft=4;spacingRight=4;overflow=hidden;rotatable=0;points=[[0,0.5],[1,0.5]];portConstraint=eastwest;whiteSpace=wrap;html=1;" parent="DgH2YeEBz2LFjA33P2SG-66" vertex="1">
          <mxGeometry y="278" width="340" height="26" as="geometry" />
        </mxCell>
        <mxCell id="DgH2YeEBz2LFjA33P2SG-81" value="&lt;span style=&quot;font-style: normal;&quot;&gt;+ getRiderTimes() : LocalTime[]&lt;/span&gt;" style="text;strokeColor=none;fillColor=none;align=left;verticalAlign=top;spacingLeft=4;spacingRight=4;overflow=hidden;rotatable=0;points=[[0,0.5],[1,0.5]];portConstraint=eastwest;whiteSpace=wrap;html=1;fontStyle=2" parent="DgH2YeEBz2LFjA33P2SG-66" vertex="1">
          <mxGeometry y="304" width="340" height="26" as="geometry" />
        </mxCell>
        <mxCell id="DgH2YeEBz2LFjA33P2SG-85" value="ErrorChecker" style="swimlane;fontStyle=1;align=center;verticalAlign=top;childLayout=stackLayout;horizontal=1;startSize=26;horizontalStack=0;resizeParent=1;resizeParentMax=0;resizeLast=0;collapsible=1;marginBottom=0;whiteSpace=wrap;html=1;" parent="1" vertex="1">
          <mxGeometry x="850" y="860" width="380" height="164" as="geometry" />
        </mxCell>
        <mxCell id="DgH2YeEBz2LFjA33P2SG-86" value="- portal : CyclingPortalImpl" style="text;strokeColor=none;fillColor=none;align=left;verticalAlign=top;spacingLeft=4;spacingRight=4;overflow=hidden;rotatable=0;points=[[0,0.5],[1,0.5]];portConstraint=eastwest;whiteSpace=wrap;html=1;fontStyle=0" parent="DgH2YeEBz2LFjA33P2SG-85" vertex="1">
          <mxGeometry y="26" width="380" height="26" as="geometry" />
        </mxCell>
        <mxCell id="DgH2YeEBz2LFjA33P2SG-91" value="" style="line;strokeWidth=1;fillColor=none;align=left;verticalAlign=middle;spacingTop=-1;spacingLeft=3;spacingRight=3;rotatable=0;labelPosition=right;points=[];portConstraint=eastwest;strokeColor=inherit;" parent="DgH2YeEBz2LFjA33P2SG-85" vertex="1">
          <mxGeometry y="52" width="380" height="8" as="geometry" />
        </mxCell>
        <mxCell id="DgH2YeEBz2LFjA33P2SG-92" value="+ checkTeamBelongsToSystem(): void" style="text;strokeColor=none;fillColor=none;align=left;verticalAlign=top;spacingLeft=4;spacingRight=4;overflow=hidden;rotatable=0;points=[[0,0.5],[1,0.5]];portConstraint=eastwest;whiteSpace=wrap;html=1;" parent="DgH2YeEBz2LFjA33P2SG-85" vertex="1">
          <mxGeometry y="60" width="380" height="26" as="geometry" />
        </mxCell>
        <mxCell id="DgH2YeEBz2LFjA33P2SG-93" value="+ checkRaceBelongsToSystem(): void" style="text;strokeColor=none;fillColor=none;align=left;verticalAlign=top;spacingLeft=4;spacingRight=4;overflow=hidden;rotatable=0;points=[[0,0.5],[1,0.5]];portConstraint=eastwest;whiteSpace=wrap;html=1;" parent="DgH2YeEBz2LFjA33P2SG-85" vertex="1">
          <mxGeometry y="86" width="380" height="26" as="geometry" />
        </mxCell>
        <mxCell id="DgH2YeEBz2LFjA33P2SG-94" value="+ checkStageBelongsToSystem(): void" style="text;strokeColor=none;fillColor=none;align=left;verticalAlign=top;spacingLeft=4;spacingRight=4;overflow=hidden;rotatable=0;points=[[0,0.5],[1,0.5]];portConstraint=eastwest;whiteSpace=wrap;html=1;" parent="DgH2YeEBz2LFjA33P2SG-85" vertex="1">
          <mxGeometry y="112" width="380" height="26" as="geometry" />
        </mxCell>
        <mxCell id="DgH2YeEBz2LFjA33P2SG-96" value="+ checkNameUnused(String trialName, nameUnusedType type): void" style="text;strokeColor=none;fillColor=none;align=left;verticalAlign=top;spacingLeft=4;spacingRight=4;overflow=hidden;rotatable=0;points=[[0,0.5],[1,0.5]];portConstraint=eastwest;whiteSpace=wrap;html=1;" parent="DgH2YeEBz2LFjA33P2SG-85" vertex="1">
          <mxGeometry y="138" width="380" height="26" as="geometry" />
        </mxCell>
        <mxCell id="DgH2YeEBz2LFjA33P2SG-100" value="" style="endArrow=diamondThin;endFill=1;endSize=24;html=1;rounded=0;edgeStyle=elbowEdgeStyle;" parent="1" source="DgH2YeEBz2LFjA33P2SG-85" target="PluiV_uVmu6kRXKaNqSc-14" edge="1">
          <mxGeometry width="160" relative="1" as="geometry">
            <mxPoint x="1110" y="490" as="sourcePoint" />
            <mxPoint x="1270" y="490" as="targetPoint" />
          </mxGeometry>
        </mxCell>
        <mxCell id="MvrAgjhzQsgvp2eCR5wt-1" value="&lt;div&gt;&lt;span style=&quot;font-weight: 400;&quot;&gt;«abstract»&lt;/span&gt;&lt;br&gt;&lt;/div&gt;Entity" style="swimlane;fontStyle=1;align=center;verticalAlign=top;childLayout=stackLayout;horizontal=1;startSize=40;horizontalStack=0;resizeParent=1;resizeParentMax=0;resizeLast=0;collapsible=1;marginBottom=0;whiteSpace=wrap;html=1;" vertex="1" parent="1">
          <mxGeometry x="1800" y="60" width="160" height="152" as="geometry" />
        </mxCell>
        <mxCell id="MvrAgjhzQsgvp2eCR5wt-2" value="- id: int" style="text;strokeColor=none;fillColor=none;align=left;verticalAlign=top;spacingLeft=4;spacingRight=4;overflow=hidden;rotatable=0;points=[[0,0.5],[1,0.5]];portConstraint=eastwest;whiteSpace=wrap;html=1;" vertex="1" parent="MvrAgjhzQsgvp2eCR5wt-1">
          <mxGeometry y="40" width="160" height="26" as="geometry" />
        </mxCell>
        <mxCell id="MvrAgjhzQsgvp2eCR5wt-3" value="" style="line;strokeWidth=1;fillColor=none;align=left;verticalAlign=middle;spacingTop=-1;spacingLeft=3;spacingRight=3;rotatable=0;labelPosition=right;points=[];portConstraint=eastwest;strokeColor=inherit;" vertex="1" parent="MvrAgjhzQsgvp2eCR5wt-1">
          <mxGeometry y="66" width="160" height="8" as="geometry" />
        </mxCell>
        <mxCell id="MvrAgjhzQsgvp2eCR5wt-4" value="+ getId(): int" style="text;strokeColor=none;fillColor=none;align=left;verticalAlign=top;spacingLeft=4;spacingRight=4;overflow=hidden;rotatable=0;points=[[0,0.5],[1,0.5]];portConstraint=eastwest;whiteSpace=wrap;html=1;" vertex="1" parent="MvrAgjhzQsgvp2eCR5wt-1">
          <mxGeometry y="74" width="160" height="26" as="geometry" />
        </mxCell>
        <mxCell id="MvrAgjhzQsgvp2eCR5wt-5" value="+ freeId(): void" style="text;strokeColor=none;fillColor=none;align=left;verticalAlign=top;spacingLeft=4;spacingRight=4;overflow=hidden;rotatable=0;points=[[0,0.5],[1,0.5]];portConstraint=eastwest;whiteSpace=wrap;html=1;" vertex="1" parent="MvrAgjhzQsgvp2eCR5wt-1">
          <mxGeometry y="100" width="160" height="26" as="geometry" />
        </mxCell>
        <mxCell id="MvrAgjhzQsgvp2eCR5wt-6" value="+ remove(): void" style="text;strokeColor=none;fillColor=none;align=left;verticalAlign=top;spacingLeft=4;spacingRight=4;overflow=hidden;rotatable=0;points=[[0,0.5],[1,0.5]];portConstraint=eastwest;whiteSpace=wrap;html=1;fontStyle=2" vertex="1" parent="MvrAgjhzQsgvp2eCR5wt-1">
          <mxGeometry y="126" width="160" height="26" as="geometry" />
        </mxCell>
      </root>
    </mxGraphModel>
  </diagram>
</mxfile>
